<?xml version="1.0" encoding="utf-8"?>
<!-- Generator: Adobe Illustrator 18.1.1, SVG Export Plug-In . SVG Version: 6.00 Build 0)  -->
<!DOCTYPE svg PUBLIC "-//W3C//DTD SVG 1.1//EN" "http://www.w3.org/Graphics/SVG/1.1/DTD/svg11.dtd">
<svg version="1.1" id="Layer_1" xmlns="http://www.w3.org/2000/svg" xmlns:xlink="http://www.w3.org/1999/xlink" x="0px" y="0px"
	 viewBox="-503 2372.8 1658 641" enable-background="new -503 2372.8 1658 641" xml:space="preserve">
<path id="Bars" fill="#FF9100" d="M-436,2683.8h145v29h-145V2683.8z M-155,2848.8h29v145h-29V2848.8z M-246.6,2974.1l45.2-137.8
	l27.6,9l-45.2,137.8L-246.6,2974.1z M-326.6,2928.1l85.5-117.1l23.4,17.1l-85.5,117.1L-326.6,2928.1z M-388.6,2859.3l117.5-84.9
	l17,23.5l-117.5,84.9L-388.6,2859.3z M-426.2,2775.2l138-44.6l8.9,27.6l-138,44.6L-426.2,2775.2z M-156,2403.8h29v145h-29V2403.8z
	 M-218.8,2413.5l45,137.8l-27.6,9l-45-137.8L-218.8,2413.5z M-302.6,2451.2l85.2,117.3l-23.5,17l-85.2-117.3L-302.6,2451.2z
	 M-371.5,2513.6l117.5,85l-17,23.5l-117.5-85L-371.5,2513.6z M-417.2,2593.8l138,44.6l-8.9,27.6l-138-44.6L-417.2,2593.8z"/>
<path id="Text" d="M-85,2775.8h37.3l-9.3-168.5h-49.8l-18,56c-5.5,18.8-11.3,41-16,60.5h-0.8c-3.8-19.8-9-40.8-14.3-60.3l-16.5-56.3
	H-223l-10.8,168.5h35.3l3-64c1.3-21,2-47,3-69.8h0.5c4,22,9.8,46,15.3,65.8l18,65.3h29.8l20.5-65.8c6.5-19.8,13.5-43.8,18.8-65.3
	h0.8c0,24.5,0.8,49,1.5,69.3L-85,2775.8z M84.7,2775.8c-1.3-6.8-1.8-18-1.8-29.8v-42.5c0-28.8-13-52.8-53.8-52.8
	c-22.3,0-39,6-47.5,10.8l7,24.5c8-5,21.3-9.3,33.8-9.3c18.8,0,22.3,9.3,22.3,15.8v1.8c-43.3-0.3-71.8,15-71.8,46.8
	c0,19.5,14.8,37.5,39.5,37.5c14.5,0,27-5.3,35-15h0.8l2.3,12.3H84.7L84.7,2775.8z M46,2731.3c0,2.2-0.2,4.4-0.8,6.5
	c-2.9,8.4-10.8,14.1-19.8,14c-8.5,0-15-4.8-15-14.5c0-14.8,15.5-19.5,35.5-19.3V2731.3z M200.2,2744.8c-6.9,2.6-14.3,3.9-21.8,3.8
	c-18.5,0-33.5-11.8-33.5-34.3c-0.3-20,12.8-34.3,32.8-34.3c10,0,16.8,1.8,21.3,3.8l6-28.3c-8-3-19-4.8-29-4.8c-45.5,0-70,29.3-70,65
	c0,38.5,25.3,62.5,64.8,62.5c14.5,0,27.3-2.5,34-5.5L200.2,2744.8z M246,2767.6c9,6,26.8,10.8,43,10.8c39.8,0,59-22.5,59-48.5
	c0-24.8-14.5-38.5-43-49.5c-23.3-9-33.5-16.8-33.5-32.5c0-11.5,8.8-25.3,31.8-25.3c11.2,0,22.2,2.7,32,8l6-17.8
	c-7.5-4.3-20-8.3-37.3-8.3c-32.8,0-54.5,19.5-54.5,45.8c0,23.8,17,38,44.5,47.8c22.8,8.8,31.8,17.8,31.8,33.5
	c0,17-13,28.8-35.3,28.8c-13.7-0.1-27.2-3.9-39-11L246,2767.6z M381.2,2625.8v29h-18.7v16.8h18.8v66c0,14.3,2.3,25,8.5,31.5
	c5.3,6,13.5,9.3,23.8,9.3c8.5,0,15.3-1.3,19.5-3l-1-16.5c-4.2,1.1-8.5,1.6-12.8,1.5c-12.3,0-16.5-8.5-16.5-23.5v-65.3h31.5v-16.8
	h-31.5v-34.8L381.2,2625.8z M546,2775.8c-1.5-8.3-2-18.5-2-29v-45.3c0-24.3-9-49.5-46-49.5c-15.2,0-29.7,4.3-39.7,10.8l5,14.5
	c9.5-5.9,20.4-9,31.5-9c24.7,0,27.5,18,27.5,28v2.5c-46.7-0.3-72.7,15.8-72.7,45c0,17.5,12.5,34.8,37,34.8c17.2,0,30.2-8.5,37-18
	h0.8l1.8,15.3H546L546,2775.8z M522.7,2735.1c-0.1,2.4-0.5,4.7-1.3,7c-3.5,10.3-13.5,20.3-29.2,20.3c-11.3,0-20.8-6.8-20.8-21
	c0-23.5,27.2-27.8,51.2-27.3V2735.1z M662,2598.3v72.3h-0.5c-5.5-9.8-18-18.5-36.5-18.5c-29.5,0-54.5,24.8-54.3,65
	c0,36.8,22.5,61.5,51.8,61.5c19.8,0,34.5-10.3,41.3-23.8h0.5l1,21H685c-0.8-8.3-1-20.5-1-31.3v-146.3H662z M662,2725.1
	c0.1,3.2-0.3,6.4-1,9.5c-4,16.5-17.5,26.3-32.3,26.3c-23.8,0-35.8-20.3-35.8-44.8c0-26.8,13.5-46.8,36.3-46.8
	c16.5,0,28.5,11.5,31.8,25.5c0.7,3,1,6.1,1,9.3V2725.1z M742.5,2775.8v-121h-22v121H742.5z M731.5,2607.1
	c-7.4-0.2-13.6,5.6-13.8,13.1c0,0.2,0,0.5,0,0.7c0,7.5,5.5,13.5,13.3,13.5c8.8,0,14.3-6,14-13.5
	C745,2613.1,739.7,2607.1,731.5,2607.1z M880.2,2654.8h-22v74.3c0,3.8-0.7,7.6-2,11.3c-4,9.8-14.3,20-29,20c-20,0-27-15.5-27-38.5
	v-67h-22v70.8c0,42.5,22.8,53,41.8,53c16.4,0.3,31.7-8.3,40-22.5h0.5l1.3,19.8h19.5c-0.8-9.5-1-20.5-1-33V2654.8z M916.7,2775.8
	h21.5v-73c-0.1-3.7,0.5-7.3,1.8-10.8c3.5-11,13.5-22,27.3-22c16.8,0,25.3,14,25.3,33.3v72.5h21.5v-74.8c0-3.7,0.6-7.4,1.8-11
	c3.8-10.8,13.5-20,26-20c17.8,0,26.3,14,26.3,37.3v68.5h21.5v-71.3c0-42-23.8-52.5-39.8-52.5c-11.5,0-19.5,3-26.8,8.5
	c-5.6,4.2-10.2,9.6-13.5,15.8h-0.5c-5.3-14.3-17.8-24.3-34.3-24.3c-20,0-31.3,10.8-38,22.3H936l-1-19.5h-19.3c0.8,10,1,20.3,1,32.8
	V2775.8z"/>
</svg>
