<?xml version="1.0" encoding="utf-8"?>
<!-- Generator: Adobe Illustrator 18.1.1, SVG Export Plug-In . SVG Version: 6.00 Build 0)  -->
<!DOCTYPE svg PUBLIC "-//W3C//DTD SVG 1.1//EN" "http://www.w3.org/Graphics/SVG/1.1/DTD/svg11.dtd">
<svg version="1.1" id="Layer_1" xmlns="http://www.w3.org/2000/svg" xmlns:xlink="http://www.w3.org/1999/xlink" x="0px" y="0px"
	 viewBox="-971.9 4808.9 2665.1 967.8" enable-background="new -971.9 4808.9 2665.1 967.8" xml:space="preserve">
<g>
	<path fill="#394C63" d="M-631.4,5040.9c-41.6,0-77.5,11.1-108.1,33.7c-18.4,13.7-36.9,38.5-52.2,60.1c-9-38.5-21.1-88-21.1-88
		h-118.1c-6.3,0-11.6,5.3-11.6,12.1v44.8c0,6.9,5.3,12.1,12.1,12.1h65.4c0,0,16.3,58,26.4,98.6c-13.7,24.8-26.9,46.4-38.5,68
		c-65.4,125.5-94.9,212.4-94.9,307.3c0,113.9,50.1,187.1,124.4,187.1c85.9,0,137.6-77,137.6-210.8c0-2.6,0-11.1-0.5-16.3
		c20.6,10.5,49.5,19,74.3,19c95.4,0,174.5-63.3,191.3-150.2c6.9-35.8,9.5-68.5,9.5-112.8c0-47.4-5.3-88.6-14.8-121.8
		C-476.9,5093-542.8,5040.9-631.4,5040.9z M-848,5710.8c-36.4,0-55.9-61.1-55.9-121.2c0-76.4,22.1-161.3,88.6-289.9
		c19.5,89.6,35.8,199.8,35.8,266.2C-779,5609.6-785.8,5710.8-848,5710.8z M-512.8,5405.6c-10.5,54.8-63.8,97-126,97
		c-26.4,0-53.2-9-77-16.9c-10-83.8-31.6-187.1-51.1-267.2c12.7-22.1,21.6-39,43.2-64.8c31.6-38,62.7-45.9,92.2-45.9
		c72.2,0,102.3,53.2,114.9,95.9c5.3,19,12.1,51.7,12.1,102.8C-504.3,5346.1-507,5374-512.8,5405.6z"/>
	<path fill="#394C63" d="M1689,5466.2l-34.8-28.5c-2.1-1.6-4.7-3.2-7.9-3.2s-6.3,1.6-8.4,3.7l0,0c-11.1,13.7-32.7,35.8-35.3,38.5
		c-12.7,12.1-29.5,22.1-48,22.1c-32.7,0-54.8-10-54.8-68.5v-315.2H1612c6.3,0,12.1-5.3,12.1-12.1v-44.8c0-6.3-5.3-12.1-12.1-12.1
		h-87.5l0,0h-24.2V4917c0-6.3-5.3-11.6-12.1-11.6h-44.8c-6.3,0-12.1,5.3-12.1,12.1v128.6h-54.3c-6.3,0-12.1,5.3-12.1,12.1v44.8
		c0,6.9,5.3,12.1,12.1,12.1h54.3l0,0v235.6c-15.8,17.9-59.6,64.3-80.1,85.4c-4.2,4.2-8.4,7.9-12.7,11.6
		c-22.7,19.5-47.4,31.6-77,40.6c-35.3,11.1-65.9,14.2-111.7,14.2c-69.6,0-103.3-46.9-103.3-46.9c5.8-6.3,85.4-85.9,85.4-85.9
		c65.4-67.5,118.1-132.3,129.1-144.4c0,0,13.7-14.2,24.8-34.8c24.2-45.3,24.8-92.8-16.9-126c-20-15.8-55.3-26.4-117-24.8
		c-91.7,2.1-181.9,55.3-200.3,149.2c-5.3,25.8-10,55.3-10,110.7c0,13.7,0,31.1,1.1,42.7c1.1,25.8,4.2,49.5,8.4,73.8
		c2.1,11.1,5.8,18.4,10,32.7c-9.5,12.1-19.5,23.2-33.7,34.8c-10.5,9-27.9,11.6-36.9,11.6h-3.2c-24.8,0-40.6-13.7-60.1-34.8l-3.2-3.7
		c-9.5-10.5-80.1-100.7-132.3-168.1l116.5-123.3l64.8-68.5c4.2-4.7,4.2-12.1-0.5-16.9l-32.7-30.6c-4.7-4.7-12.7-4.2-16.9,0.5l-8.4,9
		l0,0l-173.9,184.5l-39,41.6v-463.9c0-6.3-5.3-12.1-12.1-12.1h-33.2l0,0h-11.6c-6.9,0-12.1,5.3-12.1,12.1v152.3l0,0v383.7
		c-5.8,6.3-36.9,39.5-59.6,64.3c-19.5,21.6-46.4,48-76.4,63.8c-23.2,12.1-36.9,16.3-95.9,16.3c-61.7,0-114.4-42.7-124.9-97
		c-6.3-31.6-8.4-59.6-8.4-99.6c0-42.7,3.2-78,9-104.9c12.1-53.2,63.3-93.8,124.4-93.8c47.4,0,86.4,21.1,105.4,51.7
		c1.6,2.6,4.7,6.3,7.9,6.9c3.7,1.1,6.9,0,9.5-1.1l39.5-21.1c3.2-1.6,5.8-5.3,5.8-10c0-2.1-0.5-3.7-1.6-5.3l-2.6-5.3
		c-31.1-51.7-92.2-82.8-163.9-82.8c-92.8,0-173.4,61.1-192.4,145c-6.9,31.6-10.5,72.2-10.5,119.7c0,44.3,2.6,77,9.5,112.8
		c1.6,9,6.3,22.7,9.5,31.1c0,0-9,12.1-26.9,29c-23.7,22.1-48.5,19.5-60.1,16.9c-19.5-4.2-27.9-22.7-28.5-42.7c0,0,0-223,0-238.3
		c0-102.3-79.6-173.4-193.5-173.4c-59.6,0-118.1,25.3-155.5,67.5c-6.3,6.9-11.6,14.8-15.8,22.7c0,0-1.6,3.7-1.6,5.8
		c0,4.7,2.6,9,6.9,10.5l0,0l38.5,20.6l0,0c1.6,1.1,3.7,1.6,5.8,1.6c4.2,0,7.4-2.1,9.5-5.3c0,0,2.6-4.2,8.4-10.5
		c24.8-27.9,63.8-46.9,104.4-46.9c76.4,0,122.8,43.2,122.8,107c0,4.7,0,7.9,0,15.3h-65.9c-230.9,0-248.8,147.6-248.8,192.4
		c0,35.3,12.1,68.5,35.3,94.9c36.4,42.2,81.7,50.6,122.8,50.6c37.4,0,81.7-16.3,115.4-37.4c16.9-10.5,32.7-25.8,46.9-42.7
		c10.5,46.9,49.5,79.6,93.8,80.1c34.8,0,54.8-6.3,83.3-25.3c9-5.8,26.9-21.1,40.1-37.4c36.4,40.6,87.5,62.7,147.1,62.7
		c61.1,0,88.6-2.1,127-22.7c18.4-9.5,42.7-25.8,61.7-45.9c14.2-14.2,29.5-31.6,42.7-48v100.7c0,6.9,5.3,12.1,12.1,12.1h44.8
		c6.9,0,12.1-5.3,12.1-12.1v-170.3l42.7-43.8c47.4,60.6,119.1,151.8,130.7,165.5l3.2,3.7c20.6,22.1,52.7,60.6,108.6,60.6
		c2.1,0,21.6,0.5,35.3-5.8c40.1-17.4,68-48,76.4-57.5c5.8,5.8,16.3,16.3,23.2,21.6c37.4,29.5,83.3,41.6,137.6,41.6
		c51.1,0,86.4-2.1,123.3-14.2c30-10,82.2-40.6,111.7-70.1c9.5-10,25.8-24.8,38.5-40.6c4.2,82.2,43.8,124.9,124.9,124.9
		c46.4,0,71.7-25.8,87-40.6c2.1-2.1,45.9-45.9,45.9-45.9c1.6-2.1,2.6-4.7,2.6-7.4C1692.7,5471.5,1691.1,5468.9,1689,5466.2z
		 M-71.6,5357.7c0,71.2-76.4,139.7-145.5,139.7c-50.6,0-70.1-12.7-80.1-24.2c-12.7-14.8-18.4-31.1-18.4-50.6
		c0-80.1,63.8-123.9,179.7-123.9h64.8v59H-71.6z M1016.9,5388.8c0,0-4.7-28.5-5.3-68c-0.5-15.3,0-31.6,0.5-50.1
		c0.5-16.3,3.2-40.6,5.3-56.9c5.8-40.1,24.8-62.2,46.4-80.1c24.2-19.5,59-30.6,111.7-30.6c50.6,0,58,31.6,49.5,49
		c-22.1,44.3-78,94.4-134.4,156L1016.9,5388.8z"/>
</g>
</svg>
