<?xml version="1.0" encoding="UTF-8" standalone="no"?>
<!-- Generator: Adobe Illustrator 18.1.1, SVG Export Plug-In . SVG Version: 6.00 Build 0)  -->

<svg
   xmlns:dc="http://purl.org/dc/elements/1.1/"
   xmlns:cc="http://creativecommons.org/ns#"
   xmlns:rdf="http://www.w3.org/1999/02/22-rdf-syntax-ns#"
   xmlns:svg="http://www.w3.org/2000/svg"
   xmlns="http://www.w3.org/2000/svg"
   xmlns:sodipodi="http://sodipodi.sourceforge.net/DTD/sodipodi-0.dtd"
   xmlns:inkscape="http://www.inkscape.org/namespaces/inkscape"
   version="1.1"
   id="Layer_1"
   x="0px"
   y="0px"
   viewBox="-971.9 4808.9 133.26499 48.39"
   enable-background="new -971.9 4808.9 2665.1 967.8"
   xml:space="preserve"
   sodipodi:docname="packet.svg"
   width="133.265"
   height="48.389999"
   inkscape:version="0.92.3 (2405546, 2018-03-11)"><metadata
   id="metadata3737"><rdf:RDF><cc:Work
       rdf:about=""><dc:format>image/svg+xml</dc:format><dc:type
         rdf:resource="http://purl.org/dc/dcmitype/StillImage" /></cc:Work></rdf:RDF></metadata><defs
   id="defs3735" /><sodipodi:namedview
   pagecolor="#ffffff"
   bordercolor="#666666"
   borderopacity="1"
   objecttolerance="10"
   gridtolerance="10"
   guidetolerance="10"
   inkscape:pageopacity="0"
   inkscape:pageshadow="2"
   inkscape:window-width="1920"
   inkscape:window-height="1057"
   id="namedview3733"
   showgrid="false"
   inkscape:zoom="1.4254587"
   inkscape:cx="-197.30614"
   inkscape:cy="24.195007"
   inkscape:window-x="-8"
   inkscape:window-y="-8"
   inkscape:window-maximized="1"
   inkscape:current-layer="Layer_1" />
<g
   id="g3730"
   transform="matrix(0.05,0,0,0.05,-923.3,4568.455)">
	<path
   d="m -631.4,5040.9 c -41.6,0 -77.5,11.1 -108.1,33.7 -18.4,13.7 -36.9,38.5 -52.2,60.1 -9,-38.5 -21.1,-88 -21.1,-88 h -118.1 c -6.3,0 -11.6,5.3 -11.6,12.1 v 44.8 c 0,6.9 5.3,12.1 12.1,12.1 h 65.4 c 0,0 16.3,58 26.4,98.6 -13.7,24.8 -26.9,46.4 -38.5,68 -65.4,125.5 -94.9,212.4 -94.9,307.3 0,113.9 50.1,187.1 124.4,187.1 85.9,0 137.6,-77 137.6,-210.8 0,-2.6 0,-11.1 -0.5,-16.3 20.6,10.5 49.5,19 74.3,19 95.4,0 174.5,-63.3 191.3,-150.2 6.9,-35.8 9.5,-68.5 9.5,-112.8 0,-47.4 -5.3,-88.6 -14.8,-121.8 -26.7,-90.8 -92.6,-142.9 -181.2,-142.9 z M -848,5710.8 c -36.4,0 -55.9,-61.1 -55.9,-121.2 0,-76.4 22.1,-161.3 88.6,-289.9 19.5,89.6 35.8,199.8 35.8,266.2 0.5,43.7 -6.3,144.9 -68.5,144.9 z m 335.2,-305.2 c -10.5,54.8 -63.8,97 -126,97 -26.4,0 -53.2,-9 -77,-16.9 -10,-83.8 -31.6,-187.1 -51.1,-267.2 12.7,-22.1 21.6,-39 43.2,-64.8 31.6,-38 62.7,-45.9 92.2,-45.9 72.2,0 102.3,53.2 114.9,95.9 5.3,19 12.1,51.7 12.1,102.8 0.2,39.6 -2.5,67.5 -8.3,99.1 z"
   id="path3726"
   inkscape:connector-curvature="0"
   style="fill:#394c63" />
	<path
   d="m 1689,5466.2 -34.8,-28.5 c -2.1,-1.6 -4.7,-3.2 -7.9,-3.2 -3.2,0 -6.3,1.6 -8.4,3.7 v 0 c -11.1,13.7 -32.7,35.8 -35.3,38.5 -12.7,12.1 -29.5,22.1 -48,22.1 -32.7,0 -54.8,-10 -54.8,-68.5 V 5115.1 H 1612 c 6.3,0 12.1,-5.3 12.1,-12.1 v -44.8 c 0,-6.3 -5.3,-12.1 -12.1,-12.1 h -87.5 v 0 h -24.2 V 4917 c 0,-6.3 -5.3,-11.6 -12.1,-11.6 h -44.8 c -6.3,0 -12.1,5.3 -12.1,12.1 v 128.6 H 1377 c -6.3,0 -12.1,5.3 -12.1,12.1 v 44.8 c 0,6.9 5.3,12.1 12.1,12.1 h 54.3 v 0 235.6 c -15.8,17.9 -59.6,64.3 -80.1,85.4 -4.2,4.2 -8.4,7.9 -12.7,11.6 -22.7,19.5 -47.4,31.6 -77,40.6 -35.3,11.1 -65.9,14.2 -111.7,14.2 -69.6,0 -103.3,-46.9 -103.3,-46.9 5.8,-6.3 85.4,-85.9 85.4,-85.9 65.4,-67.5 118.1,-132.3 129.1,-144.4 0,0 13.7,-14.2 24.8,-34.8 24.2,-45.3 24.8,-92.8 -16.9,-126 -20,-15.8 -55.3,-26.4 -117,-24.8 -91.7,2.1 -181.9,55.3 -200.3,149.2 -5.3,25.8 -10,55.3 -10,110.7 0,13.7 0,31.1 1.1,42.7 1.1,25.8 4.2,49.5 8.4,73.8 2.1,11.1 5.8,18.4 10,32.7 -9.5,12.1 -19.5,23.2 -33.7,34.8 -10.5,9 -27.9,11.6 -36.9,11.6 h -3.2 c -24.8,0 -40.6,-13.7 -60.1,-34.8 l -3.2,-3.7 C 814.5,5446.2 743.9,5356 691.7,5288.6 l 116.5,-123.3 64.8,-68.5 c 4.2,-4.7 4.2,-12.1 -0.5,-16.9 l -32.7,-30.6 c -4.7,-4.7 -12.7,-4.2 -16.9,0.5 l -8.4,9 v 0 l -173.9,184.5 -39,41.6 V 4821 c 0,-6.3 -5.3,-12.1 -12.1,-12.1 h -33.2 v 0 h -11.6 c -6.9,0 -12.1,5.3 -12.1,12.1 v 152.3 0 383.7 c -5.8,6.3 -36.9,39.5 -59.6,64.3 -19.5,21.6 -46.4,48 -76.4,63.8 -23.2,12.1 -36.9,16.3 -95.9,16.3 -61.7,0 -114.4,-42.7 -124.9,-97 -6.3,-31.6 -8.4,-59.6 -8.4,-99.6 0,-42.7 3.2,-78 9,-104.9 12.1,-53.2 63.3,-93.8 124.4,-93.8 47.4,0 86.4,21.1 105.4,51.7 1.6,2.6 4.7,6.3 7.9,6.9 3.7,1.1 6.9,0 9.5,-1.1 l 39.5,-21.1 c 3.2,-1.6 5.8,-5.3 5.8,-10 0,-2.1 -0.5,-3.7 -1.6,-5.3 l -2.6,-5.3 c -31.1,-51.7 -92.2,-82.8 -163.9,-82.8 -92.8,0 -173.4,61.1 -192.4,145 -6.9,31.6 -10.5,72.2 -10.5,119.7 0,44.3 2.6,77 9.5,112.8 1.6,9 6.3,22.7 9.5,31.1 0,0 -9,12.1 -26.9,29 -23.7,22.1 -48.5,19.5 -60.1,16.9 -19.5,-4.2 -27.9,-22.7 -28.5,-42.7 0,0 0,-223 0,-238.3 0,-102.3 -79.6,-173.4 -193.5,-173.4 -59.6,0 -118.1,25.3 -155.5,67.5 -6.3,6.9 -11.6,14.8 -15.8,22.7 0,0 -1.6,3.7 -1.6,5.8 0,4.7 2.6,9 6.9,10.5 v 0 l 38.5,20.6 v 0 c 1.6,1.1 3.7,1.6 5.8,1.6 4.2,0 7.4,-2.1 9.5,-5.3 0,0 2.6,-4.2 8.4,-10.5 24.8,-27.9 63.8,-46.9 104.4,-46.9 76.4,0 122.8,43.2 122.8,107 0,4.7 0,7.9 0,15.3 h -65.9 c -230.9,0 -248.8,147.6 -248.8,192.4 0,35.3 12.1,68.5 35.3,94.9 36.4,42.2 81.7,50.6 122.8,50.6 37.4,0 81.7,-16.3 115.4,-37.4 16.9,-10.5 32.7,-25.8 46.9,-42.7 10.5,46.9 49.5,79.6 93.8,80.1 34.8,0 54.8,-6.3 83.3,-25.3 9,-5.8 26.9,-21.1 40.1,-37.4 36.4,40.6 87.5,62.7 147.1,62.7 61.1,0 88.6,-2.1 127,-22.7 18.4,-9.5 42.7,-25.8 61.7,-45.9 14.2,-14.2 29.5,-31.6 42.7,-48 v 100.7 c 0,6.9 5.3,12.1 12.1,12.1 h 44.8 c 6.9,0 12.1,-5.3 12.1,-12.1 v -170.3 l 42.7,-43.8 c 47.4,60.6 119.1,151.8 130.7,165.5 l 3.2,3.7 c 20.6,22.1 52.7,60.6 108.6,60.6 2.1,0 21.6,0.5 35.3,-5.8 40.1,-17.4 68,-48 76.4,-57.5 5.8,5.8 16.3,16.3 23.2,21.6 37.4,29.5 83.3,41.6 137.6,41.6 51.1,0 86.4,-2.1 123.3,-14.2 30,-10 82.2,-40.6 111.7,-70.1 9.5,-10 25.8,-24.8 38.5,-40.6 4.2,82.2 43.8,124.9 124.9,124.9 46.4,0 71.7,-25.8 87,-40.6 2.1,-2.1 45.9,-45.9 45.9,-45.9 1.6,-2.1 2.6,-4.7 2.6,-7.4 -0.6,0.3 -2.2,-2.3 -4.3,-5 z M -71.6,5357.7 c 0,71.2 -76.4,139.7 -145.5,139.7 -50.6,0 -70.1,-12.7 -80.1,-24.2 -12.7,-14.8 -18.4,-31.1 -18.4,-50.6 0,-80.1 63.8,-123.9 179.7,-123.9 h 64.8 v 59 z m 1088.5,31.1 c 0,0 -4.7,-28.5 -5.3,-68 -0.5,-15.3 0,-31.6 0.5,-50.1 0.5,-16.3 3.2,-40.6 5.3,-56.9 5.8,-40.1 24.8,-62.2 46.4,-80.1 24.2,-19.5 59,-30.6 111.7,-30.6 50.6,0 58,31.6 49.5,49 -22.1,44.3 -78,94.4 -134.4,156 z"
   id="path3728"
   inkscape:connector-curvature="0"
   style="fill:#394c63" />
</g>
</svg>