<?xml version="1.0" encoding="utf-8"?>
<!-- Generator: Adobe Illustrator 23.0.4, SVG Export Plug-In . SVG Version: 6.00 Build 0)  -->
<svg version="1.1" id="Layer_1" xmlns="http://www.w3.org/2000/svg" xmlns:xlink="http://www.w3.org/1999/xlink" x="0px" y="0px"
	 viewBox="0 0 840.3 326.3" style="enable-background:new 0 0 840.3 326.3;" xml:space="preserve">
<style type="text/css">
	.st0{fill-rule:evenodd;clip-rule:evenodd;fill:#E11A2C;}
	.st1{fill-rule:evenodd;clip-rule:evenodd;fill:#60B0E2;}
	.st2{fill-rule:evenodd;clip-rule:evenodd;fill:url(#SVGID_1_);}
	.st3{fill-rule:evenodd;clip-rule:evenodd;fill:#1888C9;}
	.st4{fill:#158CCC;}
	.st5{fill:#007CC3;}
	.st6{fill:#424142;}
	.st7{fill-rule:evenodd;clip-rule:evenodd;fill:url(#SVGID_2_);}
	.st8{fill:#F68B20;}
	.st9{fill-rule:evenodd;clip-rule:evenodd;fill:url(#SVGID_3_);}
	.st10{fill-rule:evenodd;clip-rule:evenodd;fill:#F68B20;}
	.st11{fill:url(#SVGID_4_);}
	.st12{fill:url(#SVGID_5_);}
	.st13{fill:url(#SVGID_6_);}
	.st14{fill:url(#SVGID_7_);}
	.st15{fill-rule:evenodd;clip-rule:evenodd;fill:url(#SVGID_8_);}
	.st16{fill:#2371B9;}
	.st17{fill:#F7911E;}
	.st18{fill:#010101;}
	.st19{fill:#3A4D63;}
	.st20{fill:#532D8D;}
</style>
<g>
	<g>
		<path class="st0" d="M541.2-106.1c-1.1,2.3-0.7,4.2,1,4.2c1.6,0,3.8-1.8,4.9-4.1c1.1-2.3,0.7-4.2-1-4.2
			C544.5-110.2,542.3-108.4,541.2-106.1z M554.5-114.4C554.5-114.4,554.5-114.4,554.5-114.4C554.5-114.3,554.5-114.3,554.5-114.4
			c-1,2.8-2.6,6-4.2,8.3c-3.4,5-8.2,8.2-10.8,7.1c-2.6-1.1-2-6.1,1.4-11.1c0.8-1.1,1.6-2.2,2.5-3.1c0,0,0,0,0,0c0,0,0,0,0,0
			c0,0,0,0,0,0c-1.1,0.1-2.1,0.4-3.2,0.6c0,0,0,0,0,0c-11.4,14-16.3,32.2-15.6,48.4l0,0c0,0,0,0,0,0c0,0,0,0,0,0
			c-6.7-2.7-11.6-9.2-12.2-17.4l0-0.1c-0.8-14.6,10.8-29.6,26.1-33.5C544.2-116.7,549.8-116.3,554.5-114.4z"/>
		<path d="M550.2-74.9c-1.1,0.8-2.3,1.5-3.5,2.1c0,0,0,0,0,0c0,0,0,0,0,0c-0.2-3.5-1-6.9-2.3-9.8c-3.5-7.6-9.6-8.1-13.6-1.3
			c-2.5,4.2-3.6,10.2-3.3,16c0,0,0,0,0,0c4.3,1.3,9.2,1.5,14.5,0.2c15.2-3.9,26.9-18.9,26-33.5c-0.7-12.8-10.9-21.1-23.6-20.4
			c0,0,0,0,0,0c-1.2,1.3-2.4,2.5-3.5,3.8c0,0,0,0,0,0c0,0,0,0,0,0c0,0,0,0,0,0c7.5-0.9,13.5,0.6,17.4,3.7c0,0,0,0,0,0c0,0,0,0,0,0
			C544.7-94.9,546.4-84.1,550.2-74.9C550.2-75,550.2-74.9,550.2-74.9C550.2-74.9,550.2-74.9,550.2-74.9z"/>
	</g>
	<g>
		<path d="M676-96.7c3.2,0,5.5,0.7,6.7,1.3c0,0,0,0,0,0l-1.1,5.8c0,0,0,0,0,0c0,0,0,0,0,0c-1.3-0.7-3.5-1.4-5.9-1.4
			c-2,0-3.3,0.8-3.3,2.2c0,1,1,1.9,3.1,2.9c2.8,1.4,5.9,3.4,5.9,7.1c0,2.4-0.8,4.4-2.4,6c-2.1,2.1-5.5,3.2-9.6,3.2
			c-3.2-0.1-6.4-0.9-7.9-2c0,0,0,0,0,0l1.1-5.8c0,0,0,0,0,0c0,0,0,0,0,0c1.7,1.1,5.1,2.2,7.6,2.2c1.9,0,3.2-0.9,3.2-2.3
			c0-1.3-0.9-2.2-3.2-3.3c-3.7-1.8-5.5-4.2-5.5-6.9C664.5-93,669.1-96.7,676-96.7z"/>
		<path d="M591.5-96.7c0.5,0,1,0,1.4,0.1c0,0,0,0,0,0c0,0,0,0,0,0l-1.5,7.5c0,0,0,0,0,0c0,0,0,0,0,0c-0.3-0.1-0.7-0.1-1.2-0.1
			c-5.3,0-7.3,5.1-8.1,9.4l-1.9,10c0,0,0,0,0,0h-7.7c0,0,0,0,0,0c0,0,0,0,0,0l5-26.3c0,0,0,0,0,0l6.7,0c0,0,0,0,0,0c0,0,0,0,0,0
			l-0.9,4.5c0,0,0,0.1,0,0.1c0,0,0.1,0,0.1,0C585.6-94.9,588.4-96.7,591.5-96.7z"/>
		<path d="M601.7-89.2c-2.1,2.1-3.6,6-3.6,9.1c0,2.7,1,4.4,2.8,4.4c2.8,0,5.2-2.9,6.1-7.3c0.2-1,0.4-1.9,0.5-2.8
			c0.1-0.9,0.2-1.6,0.2-2.2c-0.1-1.8-1-2.8-2.8-2.8C603.8-90.8,602.7-90.2,601.7-89.2z M604.5-70C604.5-70,604.5-70,604.5-70
			l0.6-3.3c0-0.1,0-0.1-0.1-0.1c0,0-0.1,0-0.1,0c-1.4,2.4-4.2,4-7.3,4c-5.1,0-7.5-4.6-7.5-9.1c0-5.2,2-10.3,5.5-13.8
			c2.9-2.9,6.6-4.4,10.7-4.4c3.1,0,5.5,0.9,6.9,2.7c2.2,2.6,2,6.5,1.4,9.4L611.9-70c0,0,0,0,0,0L604.5-70
			C604.6-70,604.5-70,604.5-70z"/>
		<path d="M694.1-75.3c4.1,0,7.1-5.8,7.1-10.9c0-1.2-0.3-4.2-3.1-4.2c-2.9,0-5.3,3.3-6.3,8.3C691.4-80.4,690.5-75.3,694.1-75.3z
			 M700.7-96.7c5.1,0,8.4,3.9,8.4,9.9c0,6.3-3,12.9-8.5,15.8c-5,2.7-9.5,1.5-10.9-0.6c0,0,0,0,0,0l-1.9,9.9c0,0,0,0,0,0h-7.7
			c0,0,0,0,0,0c0,0,0,0,0,0l6.6-34.6c0,0,0,0,0,0l6.7,0c0,0,0,0,0,0c0,0,0,0,0,0l-0.7,3.5c0,0,0,0.1,0,0.1c0,0,0.1,0,0.1,0l0,0
			C695-95.2,697.8-96.7,700.7-96.7z"/>
		<path d="M643.3-105.3h7.6c0,0,0,0,0,0c0,0,0,0,0,0l-4,20.9c0,0,0,0,0,0c0,0,0,0,0,0l10.2-11.8c0,0,0,0,0,0h8.3c0,0,0,0,0,0
			c0,0,0,0,0,0c0,0,0,0,0,0L655-84.1l6.5,14c0,0,0,0,0,0c0,0,0,0,0,0c0,0,0,0,0,0h-8.2c0,0,0,0,0,0l-6.3-13.9c0,0,0,0,0,0
			c0,0,0,0,0,0l-2.6,13.9c0,0,0,0,0,0h-7.6c0,0,0,0,0,0c0,0,0,0,0,0L643.3-105.3C643.3-105.3,643.3-105.3,643.3-105.3z"/>
		<path d="M773.4-88.8c0-1.3-1.1-2.2-2.8-2.2c-3.3,0-5.4,2.7-6,5.2l0,0.1c0,0,0,0,0,0c0,0,0,0,0,0h0.1c4.5,0,7-0.4,8.1-1.5
			C773.2-87.7,773.4-88.2,773.4-88.8z M771.6-96.7c5.4,0,9.1,3.2,9.1,7.9c0,2.2-0.7,4-2.1,5.3c-2.6,2.5-7.3,3.6-14.7,3.5l-0.1,0
			c0,0,0,0,0,0c0,0,0,0,0,0l0,0.1c0,0.8,0.3,1.8,0.8,2.5c1,1.3,2.8,2,5,2c3.2,0,6-0.8,9-2.5c0,0,0,0,0,0c0,0,0,0,0,0l-1.2,6.4
			c0,0,0,0,0,0c-3.7,1.9-8,2.1-9.7,2.1c-7.2,0-11.3-4-11.3-11c0-4,1.5-8.1,4.1-11.1C763.3-94.8,767.2-96.7,771.6-96.7z"/>
		<path d="M780.7-72.7c-0.1,1.6,1,2.9,2.6,2.9c1.6,0,3.1-1.3,3.2-3c0.1-1.6-1-2.9-2.6-2.9C782.3-75.7,780.8-74.3,780.7-72.7z
			 M780.2-72.7c0.2-1.9,1.8-3.4,3.7-3.4s3.2,1.5,3.1,3.4c-0.2,1.9-1.8,3.4-3.7,3.4S780.1-70.9,780.2-72.7z M782.9-74.7
			C782.9-74.7,782.9-74.8,782.9-74.7l0.9,0l0,0c0.2,0,0.4,0,0.5,0c0.1,0,0.3,0,0.4,0.1c0.4,0.1,0.7,0.5,0.7,0.9c0,0.1,0,0.2,0,0.2
			c-0.1,0.5-0.4,1-1.1,1.1l0.5,1.6c0,0,0,0,0,0c0,0,0,0,0,0c0,0,0,0,0,0h-0.5c0,0,0,0,0,0l-0.5-1.5l-0.3,0h0h-0.4l-0.3,1.5
			c0,0,0,0,0,0h-0.5c0,0,0,0,0,0c0,0,0,0,0,0l0.3-1.5l0,0l0.2-1.2L782.9-74.7z M783.6-74.3h-0.4l-0.1,0.7l-0.1,0.7h0.4h0
			c0.2,0,0.3,0,0.4,0c0.1,0,0.2,0,0.3-0.1c0.4-0.1,0.6-0.4,0.7-0.7c0.1-0.3-0.1-0.6-0.4-0.7c-0.1,0-0.2,0-0.3-0.1
			C784-74.3,783.9-74.3,783.6-74.3L783.6-74.3z"/>
		<path d="M721.1-89.2c-2.1,2.1-3.6,6-3.6,9.1c0,2.7,1,4.4,2.8,4.4c2.8,0,5.2-2.9,6.1-7.3c0.2-1,0.4-1.9,0.5-2.8
			c0.1-0.9,0.2-1.6,0.2-2.2c-0.1-1.8-1-2.8-2.8-2.8C723.2-90.8,722.1-90.2,721.1-89.2z M724-70C724-70,724-70,724-70l0.6-3.3
			c0-0.1,0-0.1-0.1-0.1c0,0-0.1,0-0.1,0c-1.4,2.4-4.2,4-7.3,4c-5.1,0-7.5-4.6-7.5-9.1c0-5.2,2-10.3,5.5-13.8
			c2.9-2.9,6.6-4.4,10.7-4.4c3.1,0,5.5,0.9,6.9,2.7c2.2,2.6,2,6.5,1.4,9.4L731.4-70c0,0,0,0,0,0L724-70C724-70,724-70,724-70z"/>
		<path d="M752.5-96.6c2,0,3.9,0.3,5.3,0.9c0,0,0,0,0,0l-1.2,6.2c0,0,0,0,0,0c0,0,0,0,0,0c-1.2-0.7-2.6-1-4.2-1
			c-5.5,0-8.8,4.8-8.8,9.4c0,3.9,2.6,5.3,5.1,5.3c2.2,0,4-0.5,6.4-1.6c0,0,0,0,0,0c0,0,0,0,0,0l-1.2,6.4c0,0,0,0,0,0
			c-1.8,0.9-4.6,1.4-7.4,1.4c-6.7,0-11-4.2-11-10.7C735.5-89.5,742.8-96.6,752.5-96.6z"/>
		<path d="M633-96.6c2,0,3.9,0.3,5.3,0.9c0,0,0,0,0,0l-1.2,6.2c0,0,0,0,0,0c0,0,0,0,0,0c-1.2-0.7-2.6-1-4.2-1
			c-5.5,0-8.8,4.8-8.8,9.4c0,3.9,2.6,5.3,5.1,5.3c2.2,0,4-0.5,6.4-1.6c0,0,0,0,0,0c0,0,0,0,0,0l-1.2,6.4c0,0,0,0,0,0
			c-1.8,0.9-4.6,1.4-7.4,1.4c-6.7,0-11-4.2-11-10.7C616-89.5,623.3-96.6,633-96.6z"/>
	</g>
</g>
<g>
	<g>
		<path class="st1" d="M43.7-61.9c19.5-12.5,41.7-3.5,52.7,2.5C81.1-65.4,58.7-66.8,43.7-61.9z"/>
		<radialGradient id="SVGID_1_" cx="56.4491" cy="-103.9461" r="71.2901" gradientUnits="userSpaceOnUse">
			<stop  offset="0" style="stop-color:#60B0E2"/>
			<stop  offset="2.234119e-02" style="stop-color:#5BABDE"/>
			<stop  offset="0.148" style="stop-color:#4698D0"/>
			<stop  offset="0.2882" style="stop-color:#328AC6"/>
			<stop  offset="0.4488" style="stop-color:#2081BF"/>
			<stop  offset="0.6476" style="stop-color:#117CBB"/>
			<stop  offset="1" style="stop-color:#097BBA"/>
		</radialGradient>
		<path class="st2" d="M78-119.1c9.4,0,17.5,5.7,21.1,13.7h-7.3c-3.2-4-8.2-6.8-13.8-6.8c-5.5,0-10.4,2.4-13.7,6.2
			c0.2-0.1,0.4-0.3,0.5-0.5c7.7-5.5,17.9,0.5,17.9,0.5s-9.7-2.8-16.3,1.8c-6.6,4.6-5.5,13.8-5.5,13.8s0-0.1-0.1-0.3
			c0,0.1,0.1,0.2,0.1,0.3c-1.6-1.2-3.5-1.9-5.6-2.1c-0.2-1.3-0.4-2.6-0.4-4C54.9-109,65.2-119.1,78-119.1L78-119.1z M48-67.2v-2
			c6-4.5,17.6-10.4,31.1-6.1c20.5,6.4,33.7,15.2,49.6,11.2C144.5-68,146-76.7,146-76.7s-2.8,12.2-18.4,14.9
			c-15.6,2.7-30.2-0.3-48.6-7.2C66.6-73.5,55-69.9,48-67.2L48-67.2z M48-71.2c0-0.8,2.5-1.5,3.6-2c-0.5-0.3-1.1-0.7-1.5-1.1
			c-0.8-0.8-1-1.7-2-2.6v4.2l0.3,0.1c0.2,0.2,0.3,0.4,0.5,0.5c-0.3-0.1-0.9-0.3-0.9-0.4V-71.2L48-71.2z M48-90.9v-7.3
			c2-0.5,3.3-0.8,4.9-0.9c-0.1,0.8,0,1.7,0,2.5c0,1.4,0,2.8,0.2,4.2C51.3-92.3,50-91.8,48-90.9z M48-98.2v7.3
			c-3,1.9-5.4,5.3-5.4,9.2c0,3.9,2.4,7.4,5.4,9.2v1.3c-1,0.9-2.3,1.8-3.4,2.6c-4.6-3-7.8-8.1-7.8-14C36.8-89.8,42-95.9,48-98.2
			L48-98.2z M48-77c0-4-1.3-8.5-1.3-8.5s-3.7,8,1.3,12.7V-77L48-77z M48-69.2c-3,2.3-5,4.3-5,4.3c0,0.1,2-1,5-2.3V-69.2z"/>
		<path class="st1" d="M100.1-72.3c0,0,9.8,5,19,4.2c9.2-0.8,12-4.1,12-4.1s-3.4,6.2-12.2,6.6C110-65.2,100.1-72.1,100.1-72.3z"/>
		<rect x="92" y="-104.4" class="st1" width="9" height="9"/>
		<rect x="125" y="-81.4" class="st3" width="6" height="7"/>
		<rect x="102" y="-111.4" class="st1" width="11" height="11"/>
		<rect x="134" y="-92.4" class="st3" width="11" height="11"/>
		<rect x="114" y="-99.4" class="st1" width="6" height="6"/>
		<rect x="118" y="-87.4" class="st1" width="6" height="6"/>
		<rect x="105" y="-87.4" class="st3" width="7" height="6"/>
		<rect x="127" y="-99.4" class="st3" width="6" height="6"/>
	</g>
	<g>
		<path class="st4" d="M195.2-87.2c0,2.6-0.4,4.9-1.3,7.1c-0.9,2.1-2.1,4-3.6,5.5c-1.6,1.6-3.4,2.9-5.6,3.8
			c-2.2,0.9-4.6,1.4-7.2,1.4H164v-35h13.4c2.6,0,5.1,0.3,7.2,1.1c2.2,0.9,4,2,5.6,3.5c1.6,1.5,2.8,3.3,3.6,5.5
			C194.8-92.1,195.2-89.8,195.2-87.2z M188.5-87.2c0-1.9-0.3-3.6-0.8-5.2c-0.5-1.5-1.3-2.8-2.2-3.9c-1-1.1-2.1-1.8-3.5-2.4
			c-1.4-0.6-2.9-0.8-4.6-0.8H170v25h7.4c1.7,0,3.3-0.5,4.6-1.1c1.4-0.6,2.5-1.5,3.5-2.6c1-1.1,1.7-2.4,2.2-3.9
			C188.3-83.5,188.5-85.3,188.5-87.2z"/>
		<path class="st4" d="M204.8-101.8c0,0.5-0.1,1-0.3,1.5c-0.2,0.5-0.5,0.8-0.8,1.2c-0.3,0.3-0.8,0.6-1.2,0.8c-0.5,0.2-1,0.3-1.5,0.3
			c-0.5,0-1-0.1-1.5-0.3c-0.5-0.2-0.9-0.5-1.2-0.8c-0.3-0.3-0.6-0.7-0.8-1.2c-0.2-0.5-0.3-0.9-0.3-1.5c0-0.5,0.1-1,0.3-1.5
			c0.2-0.5,0.5-0.9,0.8-1.2c0.3-0.3,0.7-0.6,1.2-0.8c0.5-0.2,0.9-0.3,1.5-0.3c0.5,0,1,0.1,1.5,0.3c0.5,0.2,0.9,0.5,1.2,0.8
			c0.3,0.3,0.6,0.7,0.8,1.2C204.7-102.9,204.8-102.4,204.8-101.8z M204-94.4v25h-6v-25H204z"/>
		<path class="st4" d="M216.8-95c1.1,0,2.1,0.3,3,0.5c0.9,0.2,1.8,0.1,2.6,1.1h6.6v1.9c0,0.4,0.2,0.7,0,0.9
			c-0.2,0.2-0.4,0.4-0.9,0.4l-2.2,0.4c0.2,0.4,0.3,0.9,0.4,1.3c0.1,0.5,0.2,1,0.2,1.5c0,1.2-0.2,2.3-0.7,3.3c-0.5,1-1.2,1.8-2,2.5
			c-0.9,0.7-1.9,1.2-3.1,1.6c-1.2,0.4-2.5,0.6-3.9,0.6c-0.9,0-1.8-0.1-2.7-0.3c-0.8,0.5-1.2,1-1.2,1.6c0,0.5,0.2,0.9,0.7,1.1
			c0.5,0.2,1.1,0.4,1.8,0.5c0.8,0.1,1.6,0.1,2.6,0.1c1,0,1.9,0,2.9,0.1c1,0.1,2,0.2,2.9,0.4c1,0.2,1.8,0.5,2.6,1
			c0.8,0.4,1.4,1,1.8,1.8c0.5,0.8,0.7,1.7,0.7,2.9c0,1.1-0.3,2.2-0.8,3.2c-0.5,1-1.3,2-2.4,2.8c-1,0.8-2.3,1.5-3.8,2
			c-1.5,0.5-3.2,0.7-5.1,0.7c-1.9,0-3.5-0.2-4.9-0.5c-1.4-0.4-2.5-0.8-3.5-1.5c-0.9-0.6-1.6-1.3-2-2.1c-0.5-0.8-0.7-1.6-0.7-2.5
			c0-1.2,0.4-2.1,1.1-2.9c0.7-0.8,1.7-1.4,3-1.9c-0.6-0.3-1.1-0.8-1.5-1.4c-0.4-0.6-0.6-1.3-0.6-2.2c0-0.4,0.1-0.8,0.2-1.2
			c0.1-0.4,0.3-0.8,0.6-1.2c0.3-0.4,0.6-0.8,1-1.1c0.4-0.3,0.9-0.7,1.4-0.9c-1.3-0.7-2.2-1.6-3-2.7c-0.7-1.1-1.1-2.5-1.1-4
			c0-1.2,0.2-2.3,0.7-3.3c0.5-1,1.2-1.8,2.1-2.5c0.9-0.7,1.9-1.2,3.1-1.6C214.1-94.8,215.4-95,216.8-95z M223.4-68.7
			c0-0.5-0.1-0.9-0.4-1.2c-0.3-0.3-0.7-0.6-1.2-0.7c-0.5-0.2-1.1-0.4-1.8-0.5c-0.7-0.1-1.4-0.3-2.1-0.3c-0.8,0-1.5,0-2.3,0
			c-0.8,0-1.6,0.1-2.3-0.1c-0.7,0.4-1.2,0.9-1.6,1.4c-0.4,0.5-0.6,1.1-0.6,1.8c0,0.4,0.1,0.9,0.3,1.2c0.2,0.4,0.6,0.7,1,1
			c0.5,0.3,1.1,0.5,1.9,0.6c0.8,0.2,1.7,0.2,2.8,0.2c1.1,0,2.1-0.1,2.9-0.3c0.8-0.2,1.5-0.4,2-0.7c0.5-0.3,0.9-0.7,1.2-1.1
			C223.3-67.7,223.4-68.2,223.4-68.7z M216.8-82.8c0.7,0,1.4-0.1,1.9-0.3c0.5-0.2,1-0.5,1.4-0.8c0.4-0.4,0.6-0.8,0.8-1.3
			c0.2-0.5,0.3-1,0.3-1.6c0-1.2-0.4-2.2-1.1-2.9c-0.7-0.7-1.8-1.1-3.3-1.1c-1.5,0-2.6,0.4-3.3,1.1c-0.7,0.7-1.1,1.7-1.1,2.9
			c0,0.6,0.1,1.1,0.3,1.6c0.2,0.5,0.5,0.9,0.8,1.3c0.4,0.4,0.8,0.6,1.4,0.8C215.5-82.9,216.1-82.8,216.8-82.8z"/>
		<path class="st4" d="M238.2-101.8c0,0.5-0.1,1-0.3,1.5c-0.2,0.5-0.5,0.8-0.8,1.2c-0.3,0.3-0.8,0.6-1.2,0.8c-0.5,0.2-1,0.3-1.5,0.3
			c-0.5,0-1-0.1-1.5-0.3c-0.5-0.2-0.9-0.5-1.2-0.8c-0.3-0.3-0.6-0.7-0.8-1.2c-0.2-0.5-0.3-0.9-0.3-1.5c0-0.5,0.1-1,0.3-1.5
			c0.2-0.5,0.5-0.9,0.8-1.2c0.3-0.3,0.7-0.6,1.2-0.8c0.5-0.2,0.9-0.3,1.5-0.3c0.5,0,1,0.1,1.5,0.3c0.5,0.2,0.9,0.5,1.2,0.8
			c0.3,0.3,0.6,0.7,0.8,1.2C238.1-102.9,238.2-102.4,238.2-101.8z M237-94.4v25h-6v-25H237z"/>
		<path class="st4" d="M249.8-69.3c-2.1,0-3.8-0.6-5-1.8c-1.2-1.2-1.8-2.9-1.8-5.1v-14.2h-2.5c-0.3,0-0.8,0.1-1-0.2
			c-0.2-0.2-0.5-0.4-0.5-0.8v-2.4l4.2-0.7l1.3-6.8c0.1-0.3,0.3-0.7,0.5-0.9c0.2-0.2,0.6-0.4,0.9-0.4h3.1v8h6v4h-6v13.8
			c0,0.8,0.2,1.4,0.6,1.8c0.4,0.4,0.9,0.7,1.6,0.7c0.4,0,0.7,0,0.9-0.1c0.3-0.1,0.5-0.2,0.7-0.3c0.2-0.1,0.4-0.2,0.5-0.3
			c0.1-0.1,0.3-0.1,0.4-0.1c0.2,0,0.3,0,0.4,0.1c0.1,0.1,0.2,0.2,0.4,0.4l1.8,2.9c-0.9,0.7-1.9,1.3-3,1.6
			C252.1-69.5,251-69.3,249.8-69.3z"/>
		<path class="st4" d="M277-69.4h-2.3c-0.6,0-1-0.2-1.3-0.4c-0.3-0.2-0.6-0.6-0.7-1.1l-0.5-1.8c-0.6,0.6-1.2,1-1.9,1.5
			c-0.6,0.4-1.2,0.8-1.9,1.1c-0.6,0.3-1.3,0.5-2.1,0.6c-0.7,0.1-1.5,0.2-2.4,0.2c-1,0-2-0.1-2.9-0.4c-0.9-0.3-1.7-0.7-2.3-1.3
			c-0.6-0.6-1.1-1.3-1.5-2.1c-0.4-0.8-0.5-1.8-0.5-2.9c0-0.9,0.2-1.9,0.7-2.8c0.5-0.9,1.3-1.7,2.5-2.5c1.1-0.7,2.4-1.3,4.3-1.8
			c1.9-0.5,3.8-0.7,6.8-0.7v-1.5c0-1.7-0.1-2.9-0.8-3.7c-0.7-0.8-1.6-1.2-2.9-1.2c-1,0-1.7,0.1-2.4,0.3c-0.6,0.2-1.2,0.5-1.6,0.8
			c-0.5,0.3-0.9,0.5-1.3,0.8c-0.4,0.2-0.8,0.3-1.3,0.3c-0.4,0-0.7-0.1-1-0.3c-0.3-0.2-0.5-0.5-0.7-0.8l-1.1-1.9
			c2.9-2.6,6.3-3.9,10.3-3.9c1.5,0,2.8,0.2,3.9,0.7c1.1,0.5,2.1,1.1,2.9,2c0.8,0.8,1.2,1.9,1.6,3c0.4,1.2,0.4,2.5,0.4,3.9V-69.4z
			 M265.8-73.4c0.6,0,1.2-0.1,1.7-0.2c0.5-0.1,1-0.3,1.5-0.5c0.5-0.2,0.6-0.5,1-0.8c0.4-0.3,1-0.7,1-1.2v-4.2c-1,0-2.9,0.1-4.1,0.3
			c-1.2,0.2-2,0.5-2.7,0.8c-0.7,0.3-1.1,0.7-1.4,1.2c-0.3,0.5-0.4,1-0.4,1.5c0,1.1,0.3,1.8,1,2.3C263.9-73.7,264.8-73.4,265.8-73.4z
			"/>
		<path class="st4" d="M287-105.4v36h-6v-36H287z"/>
		<path class="st4" d="M325.5-87.2c0,2.6-0.4,4.9-1.3,7.1c-0.9,2.2-2.1,4.1-3.6,5.7c-1.6,1.6-3.4,2.8-5.6,3.7
			c-2.2,0.9-4.6,1.3-7.2,1.3s-5.1-0.4-7.3-1.3c-2.2-0.9-4.1-2.1-5.6-3.7c-1.6-1.6-2.8-3.5-3.6-5.7c-0.9-2.2-1.3-4.6-1.3-7.1
			c0-2.6,0.4-4.9,1.3-7.1c0.9-2.2,2.1-4.1,3.6-5.7c1.6-1.6,3.4-2.8,5.6-3.7c2.2-0.9,4.6-1.3,7.3-1.3s5.1,0.5,7.2,1.4
			c2.2,0.9,4,2.2,5.6,3.7c1.6,1.6,2.8,3.5,3.6,5.7C325.1-92.2,325.5-89.8,325.5-87.2z M318.8-87.2c0-1.9-0.3-3.6-0.8-5.2
			c-0.5-1.5-1.2-2.8-2.2-3.9c-1-1.1-2.1-1.9-3.5-2.4c-1.4-0.6-2.9-0.8-4.6-0.8c-1.7,0-3.3,0.3-4.6,0.8c-1.4,0.6-2.5,1.4-3.5,2.4
			c-1,1.1-1.7,2.4-2.2,3.9c-0.5,1.5-0.8,3.3-0.8,5.2s0.3,3.6,0.8,5.2c0.5,1.5,1.3,2.8,2.2,3.9c1,1.1,2.1,1.9,3.5,2.4
			c1.4,0.6,2.9,0.8,4.6,0.8c1.7,0,3.3-0.3,4.6-0.8c1.4-0.6,2.5-1.4,3.5-2.4c1-1.1,1.7-2.4,2.2-3.9C318.6-83.6,318.8-85.3,318.8-87.2
			z"/>
		<path class="st4" d="M345.4-89.3c-0.2,0.2-0.4,0.4-0.5,0.5c-0.2,0.1-0.4,0.2-0.7,0.2c-0.3,0-0.6-0.1-0.9-0.3
			c-0.3-0.2-0.6-0.4-1-0.6c-0.4-0.2-0.9-0.4-1.4-0.6c-0.6-0.2-1.2-0.3-2.1-0.3c-1,0-2,0.2-2.8,0.6c-0.8,0.4-1.4,0.9-2,1.6
			c-0.5,0.7-0.9,1.6-1.2,2.6c-0.3,1-0.4,2.2-0.4,3.4c0,1.3,0.1,2.5,0.4,3.5c0.3,1,0.7,1.9,1.2,2.6c0.5,0.7,1.2,1.2,1.9,1.6
			c0.8,0.4,1.6,0.5,2.6,0.5c1,0,1.7-0.1,2.3-0.4c0.6-0.2,1.1-0.5,1.5-0.8c0.4-0.3,0.8-0.5,1.1-0.8c0.3-0.2,0.6-0.4,1-0.4
			c0.5,0,0.8,0.2,1.1,0.6l1.7,2.2c-0.7,0.8-1.4,1.4-2.2,2c-0.8,0.5-1.6,0.9-2.4,1.3c-0.8,0.3-1.7,0.5-2.6,0.7
			c-0.9,0.1-1.8,0.2-2.6,0.2c-1.5,0-3-0.3-4.3-0.9c-1.4-0.6-2.5-1.4-3.5-2.5c-1-1.1-1.8-2.4-2.4-4c-0.6-1.6-0.9-3.4-0.9-5.4
			c0-1.8,0.3-3.5,0.8-5.1c0.5-1.6,1.3-2.9,2.3-4c1-1.1,2.3-2,3.8-2.7c1.5-0.6,3.2-1,5.2-1c1.9,0,3.5,0.3,4.9,0.9
			c1.4,0.6,2.7,1.5,3.8,2.6L345.4-89.3z"/>
		<path class="st4" d="M358.9-95c1.6,0,3,0.3,4.3,0.8c1.3,0.5,2.5,1.2,3.4,2.2c1,1,1.7,2.1,2.2,3.5c0.5,1.4,0.8,3,0.8,4.8
			c0,0.5,0,0.8-0.1,1.1c0,0.3-0.1,0.5-0.2,0.7c-0.1,0.2-0.2,0.3-0.4,0.4c-0.2,0.1-0.4,0.1-0.7,0.1h-15.4c0.2,3,0.9,4.4,2.1,5.6
			s2.8,1.8,4.7,1.8c1,0,1.8-0.1,2.5-0.3c0.7-0.2,1.3-0.5,1.8-0.8c0.5-0.3,1-0.5,1.4-0.8c0.4-0.2,0.8-0.3,1.2-0.3
			c0.2,0,0.5,0,0.6,0.1c0.2,0.1,0.3,0.2,0.5,0.4l1.7,2.2c-0.7,0.8-1.4,1.4-2.2,2c-0.8,0.5-1.7,0.9-2.6,1.3c-0.9,0.3-1.8,0.5-2.7,0.7
			c-0.9,0.1-1.8,0.2-2.7,0.2c-1.7,0-3.3-0.3-4.8-0.9s-2.8-1.4-3.9-2.5c-1.1-1.1-2-2.5-2.6-4.2c-0.6-1.7-0.9-3.6-0.9-5.8
			c0-1.7,0.3-3.3,0.8-4.8c0.5-1.5,1.3-2.8,2.4-3.9c1-1.1,2.3-2,3.8-2.6C355.3-94.6,357-95,358.9-95z M359-90.7
			c-1.7,0-3.1,0.3-4.1,1.3c-1,1-1.6,3-1.9,4h11.2c0,0-0.1-1.3-0.3-2c-0.2-0.7-0.5-1.2-1-1.7c-0.4-0.5-1-0.9-1.6-1.2
			C360.6-90.6,359.9-90.7,359-90.7z"/>
		<path class="st4" d="M391-69.4h-2.2c-0.6,0-1-0.2-1.3-0.4c-0.3-0.2-0.6-0.6-0.7-1.1l-0.5-1.8c-0.6,0.6-1.2,1-1.9,1.5
			c-0.6,0.4-1.2,0.8-1.9,1.1c-0.6,0.3-1.3,0.5-2.1,0.6c-0.7,0.1-1.5,0.2-2.4,0.2c-1,0-2-0.1-2.9-0.4c-0.9-0.3-1.7-0.7-2.3-1.3
			c-0.6-0.6-1.1-1.3-1.5-2.1c-0.4-0.8-0.5-1.8-0.5-2.9c0-0.9,0.2-1.9,0.7-2.8c0.5-0.9,1.3-1.7,2.5-2.5c1.1-0.7,2.3-1.3,4.2-1.8
			c1.9-0.5,4.7-0.7,6.7-0.7v-1.5c0-1.7,0-2.9-0.7-3.7c-0.7-0.8-1.5-1.2-2.9-1.2c-1,0-1.7,0.1-2.3,0.3c-0.6,0.2-1.2,0.5-1.6,0.8
			c-0.5,0.3-0.9,0.5-1.3,0.8c-0.4,0.2-0.8,0.3-1.3,0.3c-0.4,0-0.7-0.1-1-0.3c-0.3-0.2-0.5-0.5-0.7-0.8l-1.1-1.9
			c2.9-2.6,6.3-3.9,10.3-3.9c1.5,0,2.8,0.2,3.9,0.7c1.1,0.5,2.1,1.1,2.9,2c0.8,0.8,1.1,1.9,1.5,3c0.4,1.2,0.3,2.5,0.3,3.9V-69.4z
			 M379.9-73.4c0.6,0,1.2-0.1,1.7-0.2c0.5-0.1,1-0.3,1.5-0.5c0.5-0.2,0.6-0.5,1-0.8c0.4-0.3,0.9-0.7,0.9-1.2v-4.2
			c-1,0-2.9,0.1-4,0.3c-1.2,0.2-1.9,0.5-2.6,0.8c-0.7,0.3-1.1,0.7-1.4,1.2c-0.3,0.5-0.4,1-0.4,1.5c0,1.1,0.3,1.8,1,2.3
			C378.1-73.7,378.9-73.4,379.9-73.4z"/>
		<path class="st4" d="M395-69.4v-25h3.7c0.8,0,1.3,0.3,1.5,1l0.4,1.9c0.5-0.5,1-1,1.6-1.4c0.6-0.4,1.1-0.8,1.8-1.1
			c0.6-0.3,1.3-0.5,2-0.7c0.7-0.2,1.5-0.2,2.3-0.2c1.4,0,2.6,0.2,3.6,0.7c1,0.5,1.9,1.1,2.6,1.9c0.7,0.8,0.9,1.8,1.3,3
			c0.4,1.2,0.2,2.4,0.2,3.8v16.1h-6v-16.1c0-1.5,0-2.7-0.7-3.5c-0.7-0.8-1.6-1.2-3-1.2c-1,0-1.9,0.2-2.8,0.7
			c-0.9,0.5-1.5,1.1-2.5,1.9v18.3H395z"/>
	</g>
</g>
<image style="overflow:visible;" width="300" height="124" xlink:href="E02DC35F1C69B2AF.jpg"  transform="matrix(0.4166 0 0 0.4166 680.1926 92.8203)">
</image>
<image style="overflow:visible;" width="189" height="103" xlink:href="osl.gif"  transform="matrix(0.6881 0 0 0.6881 424.3081 168.8694)">
</image>
<image style="overflow:visible;" width="1179" height="320" xlink:href="E02DC35F1C69B2B3.png"  transform="matrix(0.1719 0 0 0.1719 391.1489 21.9395)">
</image>
<g>
	<g>
		<polygon class="st5" points="682.7,17.6 704.5,17.6 704.5,20.7 682.7,20.7 682.7,17.6 		"/>
		<polygon class="st5" points="731,17.6 731.9,17.6 732.6,17.7 733.4,17.9 734.2,18 734.9,18.3 735.6,18.6 736.4,18.9 737.1,19.3 
			737.7,19.7 738.4,20.2 738.8,20.7 707.6,20.7 707.6,17.6 731,17.6 		"/>
		<polygon class="st5" points="745,17.6 762.7,17.6 763.8,20.7 745,20.7 745,17.6 		"/>
		<polygon class="st5" points="777.1,17.6 794.7,17.6 794.7,20.7 776.1,20.7 777.1,17.6 		"/>
		<polygon class="st5" points="682.7,23.6 704.5,23.6 704.5,26.6 682.7,26.6 682.7,23.6 		"/>
		<polygon class="st5" points="688.9,29.5 698.2,29.5 698.2,32.6 688.9,32.6 688.9,29.5 		"/>
		<polygon class="st5" points="688.9,35.4 698.2,35.4 698.2,38.5 688.9,38.5 688.9,35.4 		"/>
		<polygon class="st5" points="741.1,23.6 741.2,23.9 741.6,24.6 741.9,25.4 742.2,26.6 707.6,26.6 707.6,23.6 741.1,23.6 		"/>
		<polygon class="st5" points="713.8,29.5 723.1,29.5 723.1,32.6 713.8,32.6 713.8,29.5 		"/>
		<polygon class="st5" points="742.5,29.5 742.5,30 742.4,30.8 742.3,31.6 742.1,32.3 742,32.6 732.5,32.6 732.5,29.5 742.5,29.5 		
			"/>
		<polygon class="st5" points="740.7,35.4 740.4,35.9 739.9,36.5 739.4,37.1 738.8,37.7 738.2,38.2 737.7,38.5 713.8,38.5 
			713.8,35.4 740.7,35.4 		"/>
		<polygon class="st5" points="745,23.6 764.8,23.6 765.9,26.6 745,26.6 745,23.6 		"/>
		<polygon class="st5" points="794.7,23.6 794.7,26.6 774,26.6 775,23.6 794.7,23.6 		"/>
		<polygon class="st5" points="751.2,29.5 766.9,29.5 768,32.6 751.2,32.6 751.2,29.5 		"/>
		<polygon class="st5" points="788.6,29.5 788.6,32.6 771.9,32.6 773,29.5 788.6,29.5 		"/>
		<polygon class="st5" points="761.6,38.5 778.3,38.5 779.3,35.8 779.3,38.5 788.6,38.5 788.6,35.4 770.9,35.4 769.9,38.2 769,35.4 
			751.2,35.4 751.2,38.5 760.6,38.5 760.6,35.8 761.6,38.5 		"/>
		<polygon class="st5" points="682.7,59.3 704.5,59.3 704.5,62.4 682.7,62.4 682.7,59.3 		"/>
		<polygon class="st5" points="682.7,53.3 704.5,53.3 704.5,56.4 682.7,56.4 682.7,53.3 		"/>
		<polygon class="st5" points="688.9,41.4 698.2,41.4 698.2,44.5 688.9,44.5 688.9,41.4 		"/>
		<polygon class="st5" points="688.9,47.4 698.2,47.4 698.2,50.5 688.9,50.5 688.9,47.4 		"/>
		<polygon class="st5" points="737.7,41.4 738.2,41.8 738.8,42.3 739.4,42.9 739.9,43.5 740.4,44.1 740.7,44.5 713.8,44.5 
			713.8,41.4 737.7,41.4 		"/>
		<polygon class="st5" points="713.8,47.4 723.1,47.4 723.1,50.5 713.8,50.5 713.8,47.4 		"/>
		<polygon class="st5" points="742,47.4 742.1,47.7 742.3,48.4 742.4,49.2 742.5,50 742.5,50.5 732.5,50.5 732.5,47.4 742,47.4 		
			"/>
		<polygon class="st5" points="742.2,53.3 742.1,53.9 741.9,54.7 741.6,55.4 741.2,56.1 741.1,56.4 707.6,56.4 707.6,53.3 
			742.2,53.3 		"/>
		<polygon class="st5" points="738.8,59.3 738.2,59.8 737.6,60.3 737,60.7 736.3,61.1 735.5,61.4 734.8,61.7 734,62 733.3,62.1 
			732.5,62.3 731.7,62.4 730.9,62.4 707.6,62.4 707.6,59.3 738.8,59.3 		"/>
		<polygon class="st5" points="751.2,41.4 760.6,41.4 760.6,44.5 751.2,44.5 751.2,41.4 		"/>
		<polygon class="st5" points="776.3,44.5 763.6,44.5 762.5,41.4 777.3,41.4 776.3,44.5 		"/>
		<polygon class="st5" points="779.3,41.4 788.6,41.4 788.6,44.5 779.3,44.5 779.3,41.4 		"/>
		<polygon class="st5" points="751.2,47.4 760.6,47.4 760.6,50.5 751.2,50.5 751.2,47.4 		"/>
		<polygon class="st5" points="775.3,47.4 774.2,50.5 765.6,50.5 764.6,47.4 775.3,47.4 		"/>
		<polygon class="st5" points="779.3,47.4 788.6,47.4 788.6,50.5 779.3,50.5 779.3,47.4 		"/>
		<polygon class="st5" points="745,53.3 760.6,53.3 760.6,56.4 745,56.4 745,53.3 		"/>
		<polygon class="st5" points="773.3,53.3 772.2,56.4 767.6,56.4 766.6,53.3 773.3,53.3 		"/>
		<polygon class="st5" points="779.3,53.3 794.7,53.3 794.7,56.4 779.3,56.4 779.3,53.3 		"/>
		<polygon class="st5" points="745,59.3 760.6,59.3 760.6,62.4 745,62.4 745,59.3 		"/>
		<polygon class="st5" points="779.3,59.3 794.7,59.3 794.7,62.4 779.3,62.4 779.3,59.3 		"/>
		<polygon class="st5" points="770.2,62.4 771.2,59.3 768.6,59.3 769.7,62.4 770.2,62.4 		"/>
	</g>
</g>
<g>
	<g>
		<g>
			<g>
				<g>
					<path class="st6" d="M290.9,196.5h-6.4l-6.2,11.3h-8.4v-11.3h-4.3V210h15.9l1.4-2.6h9.7l1.5,2.6h4.4L290.9,196.5z M284,205.5
						l3.8-7h0.1l3.9,7H284z"/>
					<path class="st6" d="M312,205.5c3.3-0.3,4.6-1.4,4.6-4.4c0-3.8-2-4.6-8-4.6h-10V210h4.3v-11.3h5.6c3.2,0,3.7,0.5,3.7,2.4
						c0,1.8-0.6,2.2-3.4,2.3H304l7.8,6.6h5.5L312,205.5z"/>
					<path class="st6" d="M323,202h10.5v2.1H323v3.6h11.2v2.2h-15.5v-13.5h15.4v2.2H323V202z"/>
				</g>
				<g>
					<path class="st6" d="M166.9,207.4h-8.2c-3.3,0-4.4-1.8-4.4-3.5v-3.7c0-2.6,1.4-3.2,5.2-3.2h6.4v0h2.3v-2.5h-8.7
						c-7.1,0-10.2,1.6-10.2,5.8v3.7c0,3.2,1.5,6.1,9.4,6.1h9.6v-2.5L166.9,207.4L166.9,207.4z"/>
				</g>
				<g>
					<path class="st6" d="M174.2,207.7h10.5v2.2h-14.8v-13.5h4.3V207.7z"/>
				</g>
				<g>
					<path class="st6" d="M203.7,201.2v3.6c0,4.3-2.8,5.2-9.6,5.2c-7,0-9.5-0.7-9.5-5.2v-3.6c0-4.2,2.4-4.9,9.5-4.9
						C200.6,196.3,203.7,196.9,203.7,201.2z M188.9,201.2v3.6c0,2.7,0.9,2.9,5.2,2.9c3.9,0,5.3-0.3,5.3-2.9v-3.6
						c0.1-2.5-1.4-2.7-5.3-2.7C189.4,198.5,189,199.1,188.9,201.2z"/>
				</g>
				<g>
					<path class="st6" d="M224,196.4v9.6c0,3.8-3.9,4-9.4,4c-5.3,0-9.3-0.2-9.3-4v-9.6h4.3v9.6c0,1.4,0.8,1.8,5,1.8
						c4,0,5.1-0.3,5.1-1.8v-9.6H224z"/>
				</g>
				<g>
					<path class="st6" d="M226.3,196.4H237c6.2,0,8.9,1.4,8.9,5v3.2c0,2.8-1.3,5.3-8.1,5.3h-11.5V196.4z M237.8,207.7
						c2.9,0,3.8-1.6,3.8-3.1v-3.2c0-2.3-1.2-2.8-4.5-2.8h-6.4v9.1H237.8z"/>
				</g>
				<g>
					<path class="st6" d="M252.4,201.2h11.4v2.4h-11.4v6.3h-4.9v-15.3h16.9v2.5h-12V201.2z"/>
				</g>
			</g>
		</g>
	</g>
	<g>
		<g>
			<path class="st6" d="M337.6,196.2c0.6,0,1.2,0.5,1.2,1.2c0,0.6-0.5,1.2-1.2,1.2c-0.6,0-1.2-0.5-1.2-1.2
				C336.4,196.7,337,196.2,337.6,196.2z M337.6,198.3c0.5,0,0.9-0.4,0.9-0.9c0-0.5-0.4-0.9-0.9-0.9s-0.9,0.4-0.9,0.9
				C336.7,197.9,337.1,198.3,337.6,198.3z M337.1,196.7h0.4c0.3,0,0.6,0.1,0.6,0.4c0,0.2-0.1,0.4-0.3,0.4l0.3,0.5h-0.3l-0.3-0.5
				h-0.1v0.5h-0.3V196.7z M337.4,197.2h0.1c0.1,0,0.2,0,0.2-0.1c0-0.1-0.1-0.1-0.2-0.1h-0.1V197.2z"/>
		</g>
	</g>
	
		<radialGradient id="SVGID_2_" cx="114.6924" cy="203.5299" r="23.0305" fx="114.1286" fy="204.7146" gradientUnits="userSpaceOnUse">
		<stop  offset="0" style="stop-color:#FFFFFF"/>
		<stop  offset="0.1902" style="stop-color:#FBE700"/>
		<stop  offset="0.8593" style="stop-color:#EC8F24"/>
	</radialGradient>
	<polygon class="st7" points="112.8,188.8 115.5,179.2 115.9,179.3 116.2,189.3 121.3,180.8 121.8,181 119.4,190.7 126.7,183.8 
		127,184.1 122.1,192.8 131,188.2 131.3,188.5 124.2,195.7 134,193.5 134.2,193.9 125.6,198.9 135.6,199.3 135.6,199.7 125.9,202.4 
		135.5,205.3 135.5,205.7 125.5,205.8 134,211.1 133.8,211.6 124.1,209.1 130.9,216.4 130.7,216.8 122,211.8 126.7,220.6 
		126.2,220.9 119.1,213.9 121.5,223.5 121,223.8 115.9,215.2 115.8,225.1 115.2,225.3 112.5,215.7 109.7,225.3 109.1,225.1 
		109.1,215.2 108.9,215.1 103.3,223.4 105.7,213.8 98.4,220.6 98,220.3 103,211.6 94.1,216.3 93.8,215.9 100.8,208.8 91,211 
		90.9,210.6 99.6,205.5 89.7,205.1 89.5,204.7 99.1,202 89.6,199.2 89.7,198.8 99.6,198.6 91.2,193.5 91.3,193 101,195.5 
		94.1,188.2 94.4,187.8 103.2,192.6 98.4,183.9 98.7,183.5 106.1,190.6 103.7,180.8 103.6,180.6 109.4,189.3 109.5,179.2 
		110.1,179.2 	"/>
	<g>
		<path class="st8" d="M139.8,221c0-9.6-7.7-17.3-17.3-17.3c-3.9,0-7.4,1.3-10.3,3.4c0.4-1.8,0.5-3.7,0.5-5.6
			c0-15.9-12.9-28.8-28.8-28.8c-12.7,0-23.5,8.2-27.3,19.6c-2.2-1.6-4.9-2.6-7.8-2.6c-7.2,0-13,5.8-13,13c0,1.1,0.1,2.2,0.4,3.2
			c-9.9,0.3-17.9,8.4-17.9,18.4c0,1.2,0.1,2.3,0.3,3.4h119.8C139.4,225.7,139.8,223.4,139.8,221z"/>
	</g>
	<linearGradient id="SVGID_3_" gradientUnits="userSpaceOnUse" x1="83.9502" y1="195.537" x2="83.9502" y2="172.9478">
		<stop  offset="0" style="stop-color:#F68B20"/>
		<stop  offset="1" style="stop-color:#FFFFFF"/>
	</linearGradient>
	<path class="st9" d="M109.4,201.5c0,14-11.4,22.9-25.5,22.9c-14,0-25.4-8.9-25.4-22.9s11.4-25.4,25.4-25.4
		C98,176.1,109.4,187.5,109.4,201.5"/>
	<path class="st10" d="M105.5,201.7c0,8.6-9.7,15.6-21.7,15.6c-12,0-21.7-7-21.7-15.6c0-8.6,9.7-15.6,21.7-15.6
		C95.8,186.1,105.5,193.1,105.5,201.7"/>
	
		<linearGradient id="SVGID_4_" gradientUnits="userSpaceOnUse" x1="42.0831" y1="271.8552" x2="49.2664" y2="279.0385" gradientTransform="matrix(0.9642 0.2653 -0.2653 0.9642 75.276 -79.6933)">
		<stop  offset="0" style="stop-color:#FFFFFF"/>
		<stop  offset="0.113" style="stop-color:#FFE6CE"/>
		<stop  offset="0.3037" style="stop-color:#FDC48F"/>
		<stop  offset="0.4749" style="stop-color:#FAAA61"/>
		<stop  offset="0.6204" style="stop-color:#F8993D"/>
		<stop  offset="0.7346" style="stop-color:#F78E27"/>
		<stop  offset="0.8033" style="stop-color:#F68B20"/>
	</linearGradient>
	<path class="st11" d="M58.2,205.3c-1.4,5.1-6.7,8.1-11.8,6.7c-5.1-1.4-8.1-6.7-6.7-11.8c1.4-5.1,6.7-8.1,11.8-6.7
		C56.6,194.8,59.6,200.1,58.2,205.3z"/>
	<path class="st10" d="M56.7,199c1.6,2.8-0.4,7-4.6,9.4c-4.1,2.4-8.8,2-10.5-0.8c-1.6-2.8,0.4-7,4.6-9.4
		C50.4,195.9,55.1,196.2,56.7,199"/>
	<g>
		<linearGradient id="SVGID_5_" gradientUnits="userSpaceOnUse" x1="19.7193" y1="195.8131" x2="46.8881" y2="237.6445">
			<stop  offset="0" style="stop-color:#FFFFFF"/>
			<stop  offset="0.113" style="stop-color:#FFE6CE"/>
			<stop  offset="0.3037" style="stop-color:#FDC48F"/>
			<stop  offset="0.4749" style="stop-color:#FAAA61"/>
			<stop  offset="0.6204" style="stop-color:#F8993D"/>
			<stop  offset="0.7346" style="stop-color:#F78E27"/>
			<stop  offset="0.8033" style="stop-color:#F68B20"/>
		</linearGradient>
		<path class="st12" d="M51.9,224.3c0-8.4-6.8-15.2-15.2-15.2c-8.4,0-15.2,6.8-15.2,15.2c0,0,0,0.1,0,0.1L51.9,224.3
			C51.9,224.3,51.9,224.3,51.9,224.3z"/>
	</g>
	<g>
		<linearGradient id="SVGID_6_" gradientUnits="userSpaceOnUse" x1="127.5905" y1="206.3534" x2="123.4218" y2="218.572">
			<stop  offset="0" style="stop-color:#FFFFFF"/>
			<stop  offset="0.113" style="stop-color:#FFE6CE"/>
			<stop  offset="0.3037" style="stop-color:#FDC48F"/>
			<stop  offset="0.4749" style="stop-color:#FAAA61"/>
			<stop  offset="0.6204" style="stop-color:#F8993D"/>
			<stop  offset="0.7346" style="stop-color:#F78E27"/>
			<stop  offset="0.8033" style="stop-color:#F68B20"/>
		</linearGradient>
		<path class="st13" d="M136.5,220.9c0-7.6-6.2-13.8-13.8-13.8c-7.6,0-13.8,6.2-13.8,13.8c0,1.1,0.1,2.1,0.4,3.1h26.9
			C136.4,223,136.5,222,136.5,220.9z"/>
	</g>
	<g>
		<linearGradient id="SVGID_7_" gradientUnits="userSpaceOnUse" x1="79.3693" y1="211.9356" x2="79.3693" y2="225.2879">
			<stop  offset="0" style="stop-color:#F68B20"/>
			<stop  offset="0.6488" style="stop-color:#BD5D39"/>
			<stop  offset="1" style="stop-color:#A2453F"/>
		</linearGradient>
		<polygon class="st14" points="137.1,224.5 136.6,223.5 136,222.5 135.2,221.3 134.4,220.2 133.4,219 132.5,218 131.3,216.9 
			130.2,216 129,215.2 127.8,214.4 126.5,213.7 125.4,213.1 124.2,212.7 123.2,212.4 122.2,212.2 121.2,212 120,211.9 41.7,212 
			40.4,212.1 39.2,212.2 37.8,212.3 36.7,212.5 35.2,212.9 34.2,213.2 33.1,213.6 32,214 30.6,214.7 29.6,215.2 28.3,216.1 
			27.1,217 25.9,218 24.8,219.1 23.9,220.1 23,221.3 22.3,222.5 21.8,223.5 21.5,224.5 21.3,225.3 137.4,225.3 		"/>
	</g>
	
		<radialGradient id="SVGID_8_" cx="95.3564" cy="210.3878" r="30.8257" fx="114.4779" fy="204.7991" gradientUnits="userSpaceOnUse">
		<stop  offset="0" style="stop-color:#FFFFFF"/>
		<stop  offset="0.1334" style="stop-color:#FBE700"/>
		<stop  offset="0.8593" style="stop-color:#EC8F24"/>
	</radialGradient>
	<polygon class="st15" points="114.5,204.8 125,218.6 124.6,218.9 112.3,207.9 65.3,216.4 65.3,216 109,205.9 84.9,197.7 
		85.2,197.4 	"/>
</g>
<g>
	<defs>
		<rect id="SVGID_9_" x="74" y="12.6" width="273" height="64.2"/>
	</defs>
	<clipPath id="SVGID_10_">
		<use xlink:href="#SVGID_9_"  style="overflow:visible;"/>
	</clipPath>
	<g style="clip-path:url(#SVGID_10_);">
		
			<image style="overflow:visible;" width="2096" height="771" xlink:href="E02DC35F1C69B2B5.png"  transform="matrix(0.1572 0 0 0.1572 46.2337 -14.6082)">
		</image>
	</g>
</g>
<g id="g4421" transform="matrix(3.3724426,0,0,3.3724426,-3.3724432,-3.3728222)">
	<path id="path4423" class="st16" d="M142,81.4v4.8h-1.5v-6l3.2,0c1.3,0,1.8,0.9,1.8,1.8v4.2h-1.5v-4.2c0-0.4-0.2-0.6-0.6-0.6
		L142,81.4L142,81.4z M152.4,81.3c-0.5,0-0.9,0.3-1.1,0.6c-0.1,0.2-0.1,0.4-0.1,0.7h2.4C153.5,81.9,153.2,81.3,152.4,81.3
		 M151.1,83.6c0,0.8,0.5,1.4,1.4,1.4c0.7,0,1-0.2,1.4-0.6l0.9,0.9c-0.6,0.6-1.2,1-2.4,1c-1.5,0-2.9-0.8-2.9-3.1c0-2,1.2-3.1,2.8-3.1
		c1.6,0,2.6,1.3,2.6,3v0.6H151.1 M148.3,86.2c-1.2,0-1.8-0.9-1.8-1.7v-6h1.5v1.6h1.2v1.2h-1.2v3c0,0.4,0.2,0.5,0.5,0.5h0.6v1.3
		H148.3 M139.1,79.3h-1.5v-1.5h1.5V79.3z M139.1,86.2c-1.2-0.1-1.5-0.8-1.5-1.6l0-4.5h1.5V86.2L139.1,86.2z M157.5,86.1
		c-1.2-0.1-1.5-0.8-1.5-1.6v-6.9h1.5V86.1z M162.9,78.6c-1.4-6.8-14.6-7.3-23.2-2.1v0.6c8.5-4.4,20.6-4.4,21.7,1.9
		c0.4,2.1-0.8,4.2-2.9,5.5v1.6C161,85.3,163.6,82.3,162.9,78.6 M147.3,90.5c-5.9,0.5-12-0.3-12.9-4.9c-0.4-2.3,0.6-4.7,2-6.2v-0.8
		c-2.5,2.2-3.8,4.9-3,8.1c1,4.2,6.3,6.5,14.3,5.7c3.2-0.3,7.3-1.3,10.2-2.9v-2.3C155.3,88.9,151,90.2,147.3,90.5"/>
	<path id="path4425" class="st16" d="M159.2,78.1c0-0.1,0-0.1-0.1-0.1H159v0.2c0,0,0.1,0,0.1,0C159.2,78.2,159.2,78.2,159.2,78.1
		L159.2,78.1L159.2,78.1z M159.4,78.6h-0.1c0,0,0,0,0,0l-0.2-0.3c0,0,0,0,0,0H159v0.3c0,0,0,0,0,0h-0.1c0,0,0,0,0,0v-0.7
		c0,0,0-0.1,0-0.1c0,0,0.1,0,0.2,0c0.2,0,0.3,0.1,0.3,0.2v0c0,0.1-0.1,0.2-0.1,0.2L159.4,78.6C159.4,78.6,159.4,78.6,159.4,78.6
		C159.4,78.6,159.4,78.6,159.4,78.6 M159.1,77.7c-0.3,0-0.5,0.2-0.5,0.5c0,0.3,0.2,0.5,0.5,0.5c0.3,0,0.5-0.2,0.5-0.5
		C159.6,78,159.4,77.7,159.1,77.7 M159.1,78.9c-0.3,0-0.6-0.3-0.6-0.6c0-0.3,0.3-0.6,0.6-0.6c0.3,0,0.6,0.3,0.6,0.6
		C159.7,78.6,159.5,78.9,159.1,78.9"/>
</g>
<g>
	<path id="Bars" class="st17" d="M113.8,123.2h21.8v4.4h-21.8V123.2z M155.9,148h4.4v21.8h-4.4V148z M142.2,166.8l6.8-20.7l4.1,1.4
		l-6.8,20.7L142.2,166.8z M130.2,159.9l12.8-17.6l3.5,2.6l-12.8,17.6L130.2,159.9z M120.9,149.6l17.6-12.7l2.5,3.5l-17.6,12.7
		L120.9,149.6z M115.2,136.9l20.7-6.7l1.3,4.1l-20.7,6.7L115.2,136.9z M155.8,81.2h4.4V103h-4.4V81.2z M146.3,82.7l6.7,20.7
		l-4.1,1.3L142.2,84L146.3,82.7z M133.8,88.3l12.8,17.6l-3.5,2.6l-12.8-17.6L133.8,88.3z M123.4,97.7l17.6,12.7l-2.5,3.5l-17.6-12.7
		L123.4,97.7z M116.6,109.7l20.7,6.7l-1.3,4.1l-20.7-6.7L116.6,109.7z"/>
	<path id="Text" class="st18" d="M166.4,137h5.6l-1.4-25.3h-7.5l-2.7,8.4c-0.8,2.8-1.7,6.2-2.4,9.1h-0.1c-0.6-3-1.4-6.1-2.1-9
		l-2.5-8.4h-7.6l-1.6,25.3h5.3l0.4-9.6c0.2-3.2,0.3-7.1,0.4-10.5h0.1c0.6,3.3,1.5,6.9,2.3,9.9l2.7,9.8h4.5l3.1-9.9
		c1-3,2-6.6,2.8-9.8h0.1c0,3.7,0.1,7.3,0.2,10.4L166.4,137z M191.9,137c-0.2-1-0.3-2.7-0.3-4.5v-6.4c0-4.3-1.9-7.9-8.1-7.9
		c-3.3,0-5.9,0.9-7.1,1.6l1.1,3.7c1.2-0.8,3.2-1.4,5.1-1.4c2.8,0,3.3,1.4,3.3,2.4v0.3c-6.5,0-10.8,2.2-10.8,7c0,2.9,2.2,5.6,5.9,5.6
		c2.2,0,4.1-0.8,5.2-2.2h0.1l0.3,1.8H191.9L191.9,137z M186.1,130.4c0,0.3,0,0.7-0.1,1c-0.4,1.3-1.6,2.1-3,2.1
		c-1.3,0-2.2-0.7-2.2-2.2c0-2.2,2.3-2.9,5.3-2.9V130.4z M209.2,132.4c-1,0.4-2.1,0.6-3.3,0.6c-2.8,0-5-1.8-5-5.1
		c0-3,1.9-5.1,4.9-5.1c1.5,0,2.5,0.3,3.2,0.6l0.9-4.2c-1.2-0.5-2.8-0.7-4.3-0.7c-6.8,0-10.5,4.4-10.5,9.7c0,5.8,3.8,9.4,9.7,9.4
		c2.2,0,4.1-0.4,5.1-0.8L209.2,132.4z M216.1,135.8c1.3,0.9,4,1.6,6.4,1.6c6,0,8.9-3.4,8.9-7.3c0-3.7-2.2-5.8-6.5-7.4
		c-3.5-1.4-5-2.5-5-4.9c0-1.7,1.3-3.8,4.8-3.8c1.7,0,3.3,0.4,4.8,1.2l0.9-2.7c-1.1-0.6-3-1.2-5.6-1.2c-4.9,0-8.2,2.9-8.2,6.9
		c0,3.6,2.6,5.7,6.7,7.2c3.4,1.3,4.8,2.7,4.8,5c0,2.6-1.9,4.3-5.3,4.3c-2.1,0-4.1-0.6-5.9-1.6L216.1,135.8z M236.4,114.5v4.3h-2.8
		v2.5h2.8v9.9c0,2.1,0.3,3.8,1.3,4.7c0.8,0.9,2,1.4,3.6,1.4c1.3,0,2.3-0.2,2.9-0.4l-0.2-2.5c-0.6,0.2-1.3,0.2-1.9,0.2
		c-1.8,0-2.5-1.3-2.5-3.5v-9.8h4.7v-2.5h-4.7v-5.2L236.4,114.5z M261.1,137c-0.2-1.2-0.3-2.8-0.3-4.3v-6.8c0-3.6-1.4-7.4-6.9-7.4
		c-2.3,0-4.5,0.6-6,1.6l0.8,2.2c1.4-0.9,3.1-1.3,4.7-1.3c3.7,0,4.1,2.7,4.1,4.2v0.4c-7,0-10.9,2.4-10.9,6.8c0,2.6,1.9,5.2,5.6,5.2
		c2.6,0,4.5-1.3,5.5-2.7h0.1l0.3,2.3H261.1L261.1,137z M257.6,130.9c0,0.4-0.1,0.7-0.2,1c-0.5,1.5-2,3-4.4,3c-1.7,0-3.1-1-3.1-3.1
		c0-3.5,4.1-4.2,7.7-4.1V130.9z M278.5,110.4v10.8h-0.1c-0.8-1.5-2.7-2.8-5.5-2.8c-4.4,0-8.2,3.7-8.1,9.7c0,5.5,3.4,9.2,7.8,9.2
		c3,0,5.2-1.5,6.2-3.6h0.1l0.1,3.1h3c-0.1-1.2-0.1-3.1-0.1-4.7v-21.9H278.5z M278.5,129.4c0,0.5,0,1-0.1,1.4
		c-0.6,2.5-2.6,3.9-4.8,3.9c-3.6,0-5.4-3-5.4-6.7c0-4,2-7,5.4-7c2.5,0,4.3,1.7,4.8,3.8c0.1,0.5,0.2,0.9,0.1,1.4V129.4z M290.5,137
		v-18.1h-3.3V137H290.5z M288.9,111.7c-1.1,0-2,0.8-2.1,2c0,0,0,0.1,0,0.1c0,1.1,0.8,2,2,2c1.3,0,2.1-0.9,2.1-2
		C290.9,112.6,290.1,111.7,288.9,111.7z M311.2,118.9h-3.3V130c0,0.6-0.1,1.1-0.3,1.7c-0.6,1.5-2.1,3-4.4,3c-3,0-4-2.3-4-5.8v-10.1
		h-3.3v10.6c0,6.4,3.4,7.9,6.3,7.9c2.5,0,4.8-1.3,6-3.4h0.1l0.2,3h2.9c-0.1-1.4-0.1-3.1-0.1-4.9V118.9z M316.7,137h3.2v-10.9
		c0-0.5,0.1-1.1,0.3-1.6c0.5-1.7,2-3.3,4.1-3.3c2.5,0,3.8,2.1,3.8,5V137h3.2v-11.2c0-0.6,0.1-1.1,0.3-1.7c0.6-1.6,2-3,3.9-3
		c2.7,0,3.9,2.1,3.9,5.6V137h3.2v-10.7c0-6.3-3.6-7.9-6-7.9c-1.7,0-2.9,0.4-4,1.3c-0.8,0.6-1.5,1.4-2,2.4h-0.1
		c-0.8-2.1-2.7-3.6-5.1-3.6c-3,0-4.7,1.6-5.7,3.3h-0.1l-0.1-2.9h-2.9c0.1,1.5,0.2,3,0.2,4.9V137z"/>
</g>
<g id="g3730" transform="matrix(0.05,0,0,0.05,-923.3,4568.455)">
	<path id="path3726" class="st19" d="M32353.3-87690.4c-41.6,0-77.5,11.1-108.1,33.7c-18.4,13.7-36.9,38.5-52.2,60.1
		c-9-38.5-21.1-88-21.1-88h-118.1c-6.3,0-11.6,5.3-11.6,12.1v44.8c0,6.9,5.3,12.1,12.1,12.1h65.4c0,0,16.3,58,26.4,98.6
		c-13.7,24.8-26.9,46.4-38.5,68c-65.4,125.5-94.9,212.4-94.9,307.3c0,113.9,50.1,187.1,124.4,187.1c85.9,0,137.6-77,137.6-210.8
		c0-2.6,0-11.1-0.5-16.3c20.6,10.5,49.5,19,74.3,19c95.4,0,174.5-63.3,191.3-150.2c6.9-35.8,9.5-68.5,9.5-112.8
		c0-47.4-5.3-88.6-14.8-121.8C32507.8-87638.3,32441.9-87690.4,32353.3-87690.4L32353.3-87690.4z M32136.7-87020.5
		c-36.4,0-55.9-61.1-55.9-121.2c0-76.4,22.1-161.3,88.6-289.9c19.5,89.6,35.8,199.8,35.8,266.2
		C32205.7-87121.7,32198.9-87020.5,32136.7-87020.5z M32471.9-87325.7c-10.5,54.8-63.8,97-126,97c-26.4,0-53.2-9-77-16.9
		c-10-83.8-31.6-187.1-51.1-267.2c12.7-22.1,21.6-39,43.2-64.8c31.6-38,62.7-45.9,92.2-45.9c72.2,0,102.3,53.2,114.9,95.9
		c5.3,19,12.1,51.7,12.1,102.8C32480.4-87385.2,32477.7-87357.3,32471.9-87325.7z"/>
	<path id="path3728" class="st19" d="M34673.7-87265.1l-34.8-28.5c-2.1-1.6-4.7-3.2-7.9-3.2c-3.2,0-6.3,1.6-8.4,3.7l0,0
		c-11.1,13.7-32.7,35.8-35.3,38.5c-12.7,12.1-29.5,22.1-48,22.1c-32.7,0-54.8-10-54.8-68.5v-315.2h112.2c6.3,0,12.1-5.3,12.1-12.1
		v-44.8c0-6.3-5.3-12.1-12.1-12.1h-87.5l0,0h-24.2v-129.1c0-6.3-5.3-11.6-12.1-11.6h-44.8c-6.3,0-12.1,5.3-12.1,12.1v128.6h-54.3
		c-6.3,0-12.1,5.3-12.1,12.1v44.8c0,6.9,5.3,12.1,12.1,12.1h54.3l0,0v235.6c-15.8,17.9-59.6,64.3-80.1,85.4
		c-4.2,4.2-8.4,7.9-12.7,11.6c-22.7,19.5-47.4,31.6-77,40.6c-35.3,11.1-65.9,14.2-111.7,14.2c-69.6,0-103.3-46.9-103.3-46.9
		c5.8-6.3,85.4-85.9,85.4-85.9c65.4-67.5,118.1-132.3,129.1-144.4c0,0,13.7-14.2,24.8-34.8c24.2-45.3,24.8-92.8-16.9-126
		c-20-15.8-55.3-26.4-117-24.8c-91.7,2.1-181.9,55.3-200.3,149.2c-5.3,25.8-10,55.3-10,110.7c0,13.7,0,31.1,1.1,42.7
		c1.1,25.8,4.2,49.5,8.4,73.8c2.1,11.1,5.8,18.4,10,32.7c-9.5,12.1-19.5,23.2-33.7,34.8c-10.5,9-27.9,11.6-36.9,11.6h-3.2
		c-24.8,0-40.6-13.7-60.1-34.8l-3.2-3.7c-9.5-10.5-80.1-100.7-132.3-168.1l116.5-123.3l64.8-68.5c4.2-4.7,4.2-12.1-0.5-16.9
		l-32.7-30.6c-4.7-4.7-12.7-4.2-16.9,0.5l-8.4,9l0,0l-173.9,184.5l-39,41.6v-463.9c0-6.3-5.3-12.1-12.1-12.1h-33.2l0,0h-11.6
		c-6.9,0-12.1,5.3-12.1,12.1v152.3l0,0v383.7c-5.8,6.3-36.9,39.5-59.6,64.3c-19.5,21.6-46.4,48-76.4,63.8
		c-23.2,12.1-36.9,16.3-95.9,16.3c-61.7,0-114.4-42.7-124.9-97c-6.3-31.6-8.4-59.6-8.4-99.6c0-42.7,3.2-78,9-104.9
		c12.1-53.2,63.3-93.8,124.4-93.8c47.4,0,86.4,21.1,105.4,51.7c1.6,2.6,4.7,6.3,7.9,6.9c3.7,1.1,6.9,0,9.5-1.1l39.5-21.1
		c3.2-1.6,5.8-5.3,5.8-10c0-2.1-0.5-3.7-1.6-5.3l-2.6-5.3c-31.1-51.7-92.2-82.8-163.9-82.8c-92.8,0-173.4,61.1-192.4,145
		c-6.9,31.6-10.5,72.2-10.5,119.7c0,44.3,2.6,77,9.5,112.8c1.6,9,6.3,22.7,9.5,31.1c0,0-9,12.1-26.9,29
		c-23.7,22.1-48.5,19.5-60.1,16.9c-19.5-4.2-27.9-22.7-28.5-42.7c0,0,0-223,0-238.3c0-102.3-79.6-173.4-193.5-173.4
		c-59.6,0-118.1,25.3-155.5,67.5c-6.3,6.9-11.6,14.8-15.8,22.7c0,0-1.6,3.7-1.6,5.8c0,4.7,2.6,9,6.9,10.5l0,0l38.5,20.6l0,0
		c1.6,1.1,3.7,1.6,5.8,1.6c4.2,0,7.4-2.1,9.5-5.3c0,0,2.6-4.2,8.4-10.5c24.8-27.9,63.8-46.9,104.4-46.9c76.4,0,122.8,43.2,122.8,107
		c0,4.7,0,7.9,0,15.3h-65.9c-230.9,0-248.8,147.6-248.8,192.4c0,35.3,12.1,68.5,35.3,94.9c36.4,42.2,81.7,50.6,122.8,50.6
		c37.4,0,81.7-16.3,115.4-37.4c16.9-10.5,32.7-25.8,46.9-42.7c10.5,46.9,49.5,79.6,93.8,80.1c34.8,0,54.8-6.3,83.3-25.3
		c9-5.8,26.9-21.1,40.1-37.4c36.4,40.6,87.5,62.7,147.1,62.7c61.1,0,88.6-2.1,127-22.7c18.4-9.5,42.7-25.8,61.7-45.9
		c14.2-14.2,29.5-31.6,42.7-48v100.7c0,6.9,5.3,12.1,12.1,12.1h44.8c6.9,0,12.1-5.3,12.1-12.1v-170.3l42.7-43.8
		c47.4,60.6,119.1,151.8,130.7,165.5l3.2,3.7c20.6,22.1,52.7,60.6,108.6,60.6c2.1,0,21.6,0.5,35.3-5.8c40.1-17.4,68-48,76.4-57.5
		c5.8,5.8,16.3,16.3,23.2,21.6c37.4,29.5,83.3,41.6,137.6,41.6c51.1,0,86.4-2.1,123.3-14.2c30-10,82.2-40.6,111.7-70.1
		c9.5-10,25.8-24.8,38.5-40.6c4.2,82.2,43.8,124.9,124.9,124.9c46.4,0,71.7-25.8,87-40.6c2.1-2.1,45.9-45.9,45.9-45.9
		c1.6-2.1,2.6-4.7,2.6-7.4C34677.4-87259.8,34675.8-87262.4,34673.7-87265.1L34673.7-87265.1z M32913.1-87373.6
		c0,71.2-76.4,139.7-145.5,139.7c-50.6,0-70.1-12.7-80.1-24.2c-12.7-14.8-18.4-31.1-18.4-50.6c0-80.1,63.8-123.9,179.7-123.9h64.8
		v59H32913.1z M34001.6-87342.5c0,0-4.7-28.5-5.3-68c-0.5-15.3,0-31.6,0.5-50.1c0.5-16.3,3.2-40.6,5.3-56.9
		c5.8-40.1,24.8-62.2,46.4-80.1c24.2-19.5,59-30.6,111.7-30.6c50.6,0,58,31.6,49.5,49c-22.1,44.3-78,94.4-134.4,156L34001.6-87342.5
		z"/>
</g>
<g id="Calque_2_1_">
	<g id="Calque_1-2_1_">
		<path class="st20" d="M400.3,142h9.9c2.2-0.3,3.9-2.1,4-4.3v-14.3c0-1.9-1.5-3.4-3.4-3.4c-1.9,0-3.4,1.5-3.4,3.4c0,0,0,0,0,0v9.1
			c0,1.4-1.2,2.6-2.6,2.6h-4.5c-1.9,0-3.4,1.5-3.4,3.5c0,0,0,0,0,0C396.8,140.5,398.4,142,400.3,142z M404.8,109.2h-9.9
			c-2.2,0.3-3.9,2.1-4,4.3v14.3c0,1.9,1.5,3.4,3.4,3.4s3.4-1.5,3.4-3.4v-9.1c0-1.4,1.2-2.6,2.6-2.6h4.5c1.9,0,3.4-1.5,3.4-3.5
			c0,0,0,0,0,0C408.2,110.7,406.7,109.2,404.8,109.2z"/>
		<path class="st20" d="M406.4,102.3c8.1,0,14.6,6.6,14.7,14.7v28.2c-0.3,2-1.9,3.5-3.9,3.7h-18.7c-8.1,0-14.7-6.6-14.7-14.7l0,0
			v-27.4c0-2.5,2-4.5,4.5-4.5H406.4 M406.4,95.4h-18.1c-6.3,0-11.4,5.1-11.4,11.4v27.4c0,11.9,9.7,21.6,21.6,21.6h19.1
			c5.5-0.4,9.8-4.7,10.4-10.2v-28.6C428,105,418.4,95.4,406.4,95.4C406.4,95.4,406.4,95.4,406.4,95.4z M454.5,142.3
			c-2.4,0-4.7-0.6-6.8-1.7c-2.2-1.1-4-2.7-5.5-4.7c-0.4-0.5-0.3-1.2,0.2-1.6l2.6-2.3c0.2-0.2,0.5-0.3,0.8-0.3c0.1,0,0.1,0,0.2,0
			c0.3,0,0.6,0.2,0.8,0.5c0.9,1.4,2.1,2.6,3.6,3.5c1.4,0.8,3,1.3,4.6,1.3c1.7,0,3-0.4,3.9-1.1c0.8-0.7,1.2-1.6,1.2-2.8
			c0-1.3-0.4-2.3-1.2-3c-1-0.8-2.7-1.5-5-2.2c-6.7-1.7-10.1-4.9-10.1-9.6c0-2.9,1-5.2,2.9-6.8c1.9-1.6,4.4-2.3,7.7-2.3
			c2.2,0,4.3,0.4,6.3,1.3c1.9,0.9,3.7,2.3,5,4c0.4,0.5,0.3,1.2-0.2,1.6l-2.5,2.1c-0.5,0.4-1.2,0.4-1.7-0.1c0,0,0,0,0-0.1
			c-0.8-1.1-1.8-2.1-3-2.8c-1.2-0.6-2.5-0.9-3.9-0.9c-1.5,0-2.8,0.3-3.7,1c-0.8,0.6-1.3,1.5-1.2,2.5c0,1.1,0.4,2,1.2,2.6
			c0.9,0.8,2.6,1.4,4.9,2c3.2,0.9,5.7,2,7.4,3.6c1.9,1.6,2.9,3.9,2.9,6.8c0,1.7-0.5,3.4-1.4,4.8c-1,1.4-2.4,2.6-4,3.2
			C458.4,142,456.4,142.4,454.5,142.3L454.5,142.3z M479.6,142.5c-2,0-4-0.5-5.8-1.5c-1.7-1-3.1-2.5-4-4.3c-1-1.9-1.5-4-1.4-6.1
			c0-2.1,0.5-4.2,1.4-6.1c0.9-1.8,2.3-3.3,4-4.3c1.7-1,3.7-1.6,5.8-1.6c1.7,0,3.4,0.4,4.9,1.2c1.4,0.8,2.7,2,3.7,3.3
			c0.4,0.5,0.3,1.3-0.2,1.7l-2.1,1.7c-0.2,0.2-0.5,0.3-0.7,0.3c-0.1,0-0.1,0-0.2,0c-0.3,0-0.6-0.2-0.8-0.5c-1.2-1.7-2.6-2.5-4.5-2.5
			c-1.1,0-2.1,0.3-3,0.8c-0.9,0.6-1.6,1.4-2.1,2.4c-1,2.3-1,5,0,7.3c0.5,1,1.2,1.8,2.1,2.4c0.9,0.6,1.9,0.8,3,0.8
			c1.2,0,2.1-0.2,2.8-0.6c0.8-0.4,1.5-1,2-1.8c0.4-0.5,1.1-0.6,1.6-0.2l2.3,1.6c0.5,0.4,0.7,1.1,0.3,1.6c0,0,0,0-0.1,0.1
			c-1.1,1.3-2.4,2.4-3.9,3.1C483,142.1,481.3,142.5,479.6,142.5L479.6,142.5z M501.4,142.5c-2,0-4-0.5-5.8-1.6c-1.7-1-3.1-2.5-4-4.3
			c-1-1.9-1.5-4-1.4-6.1c0-2.1,0.4-4.2,1.4-6.1c0.9-1.8,2.3-3.2,3.9-4.2c1.7-1,3.7-1.6,5.7-1.6c1.6,0,3.2,0.4,4.6,1.1
			c0.5,0.2,0.9,0.5,1.3,0.9v-0.1c0-0.7,0.5-1.2,1.2-1.2h2.9c0.7,0,1.2,0.5,1.2,1.2v20.1c0,0.7-0.5,1.2-1.2,1.2h-2.9
			c-0.7,0-1.2-0.5-1.2-1.2v-0.1c-0.4,0.3-0.9,0.6-1.3,0.8C504.5,142.1,502.9,142.5,501.4,142.5L501.4,142.5z M501.3,123.7
			c-1,0-2.1,0.3-3,0.8c-0.9,0.6-1.6,1.4-2.1,2.4c-0.5,1.1-0.8,2.4-0.8,3.6c0,1.3,0.2,2.5,0.8,3.7c0.5,1,1.2,1.8,2.1,2.4
			c0.9,0.6,1.9,0.9,3,0.8c1.1,0,2.1-0.3,3-0.8c0.9-0.6,1.6-1.4,2.1-2.4c1-2.3,1-5,0-7.3c-0.5-1-1.2-1.8-2.1-2.4
			C503.4,123.9,502.3,123.6,501.3,123.7L501.3,123.7z"/>
		<path class="st20" d="M517.4,109.4h2.9c0.7,0,1.2,0.5,1.2,1.2v29.9c0,0.7-0.5,1.2-1.2,1.2h-2.9c-0.7,0-1.2-0.5-1.2-1.2v-29.9
			C516.2,109.9,516.8,109.4,517.4,109.4z"/>
		<path class="st20" d="M568.4,141.8c-0.5,0-1-0.3-1.1-0.8l-3.8-12l-4.1,12c-0.2,0.5-0.6,0.8-1.1,0.8h-2.9c-0.5,0-1-0.3-1.1-0.8
			l-6.6-20.1c-0.2-0.5,0-1.1,0.5-1.4c0.2-0.1,0.4-0.2,0.6-0.2h3.1c0.5,0,1,0.3,1.1,0.8l4,12.5l4.1-12.5c0.2-0.5,0.6-0.8,1.1-0.8h2.8
			c0.5,0,1,0.3,1.1,0.8l3.9,12.4l4-12.4c0.2-0.5,0.6-0.8,1.1-0.8h2.8c0.2,0,0.3,0,0.5,0.1c0.6,0.2,0.9,0.9,0.7,1.5l-6.5,20.1
			c-0.2,0.5-0.6,0.8-1.1,0.8L568.4,141.8z M591,142.5c-2,0-4-0.5-5.8-1.6c-1.7-1-3.1-2.5-4-4.3c-1-1.9-1.5-4-1.4-6.1
			c0-2.1,0.4-4.2,1.4-6.1c0.9-1.8,2.3-3.2,4-4.3c1.7-1,3.7-1.6,5.7-1.6c1.6,0,3.2,0.4,4.6,1.1c0.5,0.2,0.9,0.5,1.3,0.8v-0.1
			c0-0.7,0.5-1.2,1.2-1.2h2.9c0.7,0,1.2,0.5,1.2,1.2v20.1c0,0.7-0.5,1.2-1.2,1.2H598c-0.7,0-1.2-0.5-1.2-1.2v-0.1
			c-0.4,0.3-0.8,0.6-1.3,0.8C594.1,142.1,592.6,142.5,591,142.5L591,142.5z M590.9,123.7c-1,0-2.1,0.3-3,0.8
			c-0.9,0.6-1.6,1.4-2.1,2.4c-0.5,1.1-0.8,2.4-0.8,3.6c0,1.3,0.2,2.5,0.8,3.7c0.5,1,1.2,1.8,2.1,2.4c0.9,0.6,1.9,0.9,3,0.8
			c1.1,0,2.1-0.3,3-0.8c0.9-0.6,1.6-1.4,2.1-2.4c1-2.3,1-5,0-7.3c-0.5-1-1.2-1.8-2.1-2.4C593,123.9,592,123.6,590.9,123.7
			L590.9,123.7z M543.1,134.7c-0.6-0.4-1.3-0.3-1.7,0.2c-0.5,0.7-1.2,1.3-1.9,1.7c-1,0.5-2.2,0.8-3.7,0.8c-1.8,0-3.1-0.6-4.1-1.8
			c-0.8-1-1.4-2.1-1.6-3.3h15.2c0.6,0,1.1-0.5,1.2-1.1c0-0.3,0-0.8,0-1.4c0-2-0.5-3.9-1.4-5.7c-0.9-1.7-2.2-3.1-3.9-4.1
			c-1.7-1-3.6-1.5-5.5-1.5c-2,0-4,0.5-5.7,1.6c-1.7,1-3.1,2.5-4,4.3c-0.9,1.9-1.4,4-1.4,6.1c0,2.1,0.5,4.2,1.4,6.1
			c0.9,1.8,2.3,3.3,4,4.3c1.8,1,3.8,1.6,5.8,1.6c2.3,0,4.4-0.5,6.1-1.4c1.4-0.8,2.6-1.8,3.6-3c0.4-0.6,0.3-1.4-0.2-1.8
			c0,0,0,0-0.1-0.1L543.1,134.7z M532,125.1c1-1,2.2-1.4,3.7-1.4c1.6,0,2.8,0.4,3.7,1.2c0.7,0.7,1.2,1.7,1.5,2.7h-10.5
			C530.8,126.6,531.3,125.8,532,125.1L532,125.1z M625.8,119.8c-0.2-0.3-0.6-0.5-1-0.5h-2.7c-0.5,0-0.9,0.3-1.1,0.8l-5.7,14.7
			l-5.4-14.7c-0.2-0.5-0.6-0.7-1.1-0.7h-3c-0.7,0-1.2,0.5-1.2,1.2c0,0.1,0,0.3,0.1,0.4l7.9,20.8c-0.2,0.9-0.6,1.6-1.1,1.9
			c-0.7,0.5-2.1,0.6-2.9,0.6c-0.7,0-1.2,0.6-1.2,1.3v2c0,0.7,0.6,1.3,1.3,1.3c0,0,0,0,0,0c1.2,0,3.2,0.1,4.8-0.7
			c3.2-1.7,3.7-3.8,4.6-6.1l8-21.1C626.1,120.6,626.1,120.2,625.8,119.8L625.8,119.8z"/>
	</g>
</g>
</svg>
